/* XPM */
static char * mini_floor_xpm[] = {
"20 20 262 2",
"  	c #898179",
". 	c #887F77",
"+ 	c #877E76",
"@ 	c #9C9690",
"# 	c #938D87",
"$ 	c #8B847D",
"% 	c #8A827B",
"& 	c #8A827A",
"* 	c #9F9994",
"= 	c #908982",
"- 	c #888079",
"; 	c #89817A",
"> 	c #928B85",
", 	c #918A84",
"' 	c #6B5E4F",
") 	c #6B5C4D",
"! 	c #73675B",
"~ 	c #948E88",
"{ 	c #7E756D",
"] 	c #6F6357",
"^ 	c #6E6154",
"/ 	c #6C5F51",
"( 	c #74685D",
"_ 	c #9A938E",
": 	c #8A817A",
"< 	c #6D5F52",
"[ 	c #6B5E50",
"} 	c #6A5D50",
"| 	c #6C6052",
"1 	c #7C7269",
"2 	c #786D64",
"3 	c #6B5D4F",
"4 	c #817870",
"5 	c #8C837C",
"6 	c #98918B",
"7 	c #98908A",
"8 	c #827970",
"9 	c #7F766D",
"0 	c #938B86",
"a 	c #8B837D",
"b 	c #9E9791",
"c 	c #6A5C4D",
"d 	c #695B4D",
"e 	c #7E746C",
"f 	c #7B7067",
"g 	c #766B60",
"h 	c #7E776C",
"i 	c #756E61",
"j 	c #837B72",
"k 	c #7F7269",
"l 	c #857B72",
"m 	c #948D87",
"n 	c #89827B",
"o 	c #776E66",
"p 	c #746C63",
"q 	c #787067",
"r 	c #8D857E",
"s 	c #74695D",
"t 	c #695B4C",
"u 	c #6F6256",
"v 	c #8C847E",
"w 	c #878077",
"x 	c #756E60",
"y 	c #746E5F",
"z 	c #756F60",
"A 	c #7A7367",
"B 	c #81776E",
"C 	c #7A6F65",
"D 	c #736A61",
"E 	c #726960",
"F 	c #736A60",
"G 	c #72695F",
"H 	c #797068",
"I 	c #928B84",
"J 	c #8F8882",
"K 	c #878078",
"L 	c #8F8881",
"M 	c #89827A",
"N 	c #766F62",
"O 	c #726B5E",
"P 	c #726C5D",
"Q 	c #746D5F",
"R 	c #847B73",
"S 	c #72685E",
"T 	c #70665C",
"U 	c #80776F",
"V 	c #968F89",
"W 	c #80796F",
"X 	c #7C756B",
"Y 	c #726B5D",
"Z 	c #736C5D",
"` 	c #736D5E",
" .	c #71675D",
"..	c #6F655B",
"+.	c #70665B",
"@.	c #71675C",
"#.	c #72685D",
"$.	c #837B73",
"%.	c #847C73",
"&.	c #7A7267",
"*.	c #726B5C",
"=.	c #736D5D",
"-.	c #938C85",
";.	c #70655A",
">.	c #6F655A",
",.	c #71665B",
"'.	c #6F6459",
").	c #867E76",
"!.	c #756D61",
"~.	c #6F6859",
"{.	c #716A5B",
"].	c #726C5C",
"^.	c #716B5B",
"/.	c #746D5E",
"(.	c #857E75",
"_.	c #968D86",
":.	c #908780",
"<.	c #877F77",
"[.	c #776C62",
"}.	c #6D6257",
"|.	c #6F6358",
"1.	c #6E6357",
"2.	c #6D6156",
"3.	c #6D6256",
"4.	c #8B827B",
"5.	c #928C86",
"6.	c #777064",
"7.	c #706A5A",
"8.	c #7D766D",
"9.	c #7A7368",
"0.	c #897D75",
"a.	c #77685D",
"b.	c #726356",
"c.	c #7E7369",
"d.	c #8B837C",
"e.	c #7C736A",
"f.	c #776D62",
"g.	c #766B61",
"h.	c #73685D",
"i.	c #6D6255",
"j.	c #6D6155",
"k.	c #7C7268",
"l.	c #928983",
"m.	c #948A83",
"n.	c #948C86",
"o.	c #888179",
"p.	c #8D857F",
"q.	c #918881",
"r.	c #7A6C61",
"s.	c #716254",
"t.	c #6F6052",
"u.	c #6E5F50",
"v.	c #786A5E",
"w.	c #99938D",
"x.	c #968E88",
"y.	c #8D847E",
"z.	c #8E8780",
"A.	c #948D88",
"B.	c #6F5F51",
"C.	c #7E7268",
"D.	c #938C86",
"E.	c #908983",
"F.	c #746B62",
"G.	c #746A61",
"H.	c #908881",
"I.	c #847971",
"J.	c #706153",
"K.	c #6D5E50",
"L.	c #6D5E4F",
"M.	c #76675B",
"N.	c #928A83",
"O.	c #767063",
"P.	c #766F63",
"Q.	c #7D756A",
"R.	c #908981",
"S.	c #80766C",
"T.	c #6A5B4B",
"U.	c #716356",
"V.	c #8C857F",
"W.	c #746A60",
"X.	c #766C62",
"Y.	c #8E867F",
"Z.	c #796C62",
"`.	c #6E5F51",
" +	c #6E5E4F",
".+	c #7D7065",
"++	c #8C847C",
"@+	c #746D61",
"#+	c #787165",
"$+	c #75695E",
"%+	c #716255",
"&+	c #7A6D62",
"*+	c #756558",
"=+	c #867A72",
"-+	c #898279",
";+	c #746E60",
">+	c #746E61",
",+	c #756E62",
"'+	c #7C756A",
")+	c #7C6F65",
"!+	c #8E8680",
"~+	c #6F6458",
"{+	c #7B7167",
"]+	c #97908A",
"^+	c #877D76",
"/+	c #8E857F",
"(+	c #968F88",
"_+	c #746D60",
":+	c #736D5F",
"<+	c #706458",
"[+	c #6E6255",
"}+	c #706357",
"|+	c #716558",
"1+	c #7F756C",
"2+	c #716458",
"3+	c #81796F",
"4+	c #736C5E",
"5+	c #756F61",
"6+	c #756F62",
"7+	c #7E766C",
"8+	c #74695E",
"9+	c #776C60",
"0+	c #6D6053",
"a+	c #7B7066",
"b+	c #6D5F51",
"c+	c #6B5D4E",
"d+	c #81776D",
"e+	c #7B7367",
"f+	c #787064",
"g+	c #8B827C",
"h+	c #7D7268",
"i+	c #938B85",
"j+	c #796D63",
"k+	c #918A83",
"l+	c #7E746A",
"m+	c #7A7266",
"n+	c #766E61",
"o+	c #867D75",
"p+	c #837A71",
"q+	c #716559",
"r+	c #7F746B",
"s+	c #918983",
"t+	c #877F78",
"u+	c #857C74",
"v+	c #877E77",
"w+	c #958E88",
"x+	c #857C73",
"y+	c #827971",
"z+	c #847B74",
"A+	c #8C847D",
"B+	c #928A84",
"C+	c #7D736A",
"D+	c #6F6255",
"E+	c #6E6153",
"F+	c #807870",
"G+	c #888078",
"H+	c #796E64",
"I+	c #6F6356",
"J+	c #6E6256",
"K+	c #706459",
"L+	c #776C61",
"M+	c #887E77",
"  . + @ # $ % &   * = -     ; & % > , - ",
"' ) ! ~ { ] ^ / ( _ : < [ [ } / | 1 2 3 ",
"4 & 5 6 7 8 ] 9 0 a b 5 ^ c d 3 [ e f g ",
"h i i j k l m n o p q ; r s t u 1 > v w ",
"x y z A B C % D D E F G H I J K L M N O ",
"y P Q x R + o E G G S T T U V y W X Y Y ",
"Z Z ` y % r G S  ...+.+.@.#.$.W %.&.*.*.",
"=.*.P ` -.L F  .+.;.>.;.,.'.;.$ ).!.~.{.",
"].^./.(._.:.<.[.;.}.|.;.1.2.3.4.5.6.{.7.",
"8.9.L 0.a.b.c.d.e.f.g.h.i.j.k.l.m.n.% o.",
"p.n.q.r.s.t.u.v.w.x.= y.% z.A.r.B.C.D.E.",
"F.G.H.I.J.K.L.M.N.6.O.P.6.Q.R.S.T.U.V.G ",
"W.S X.Y.Z.`. +.+++i i @+@+N #+N.$+%+;  .",
"#.;.,.f.Y.&+*+=+-+x i ;+>+,+N '+<.)+!++.",
";.] ~+h.{+]+^+/+(+_+:+Q _+i _+6.A p.!+'.",
"<+[+}+|+1++ ^ 2+N.3+Q 4+Q :+5+P.6+7+> 8+",
"{ 9+! 0+: a+b+c+++d+e+Y 4+_+_+N 6+f+H., ",
"g+L l.h+i+j+! h+k+l++ m+n+N N f+e+o+/+p+",
"q+q+r+s+m t+u+9 1 v+R w+x+y+z+A+!+B+C+~+",
"D+E+0+1+F+ .;.~+] p.G+H+<+I+J+K+L+M+1 [+"};
