/* XPM */
static char * mini_greystone_xpm[] = {
"20 20 136 2",
"  	c #505050",
". 	c #4D4D4D",
"+ 	c #949494",
"@ 	c #B2B2B2",
"# 	c #B5B5B5",
"$ 	c #B4B4B4",
"% 	c #B3B3B3",
"& 	c #737373",
"* 	c #8E8E8E",
"= 	c #999999",
"- 	c #969696",
"; 	c #888888",
"> 	c #3D3D3D",
", 	c #656565",
"' 	c #6D6D6D",
") 	c #636363",
"! 	c #4E4E4E",
"~ 	c #4C4C4C",
"{ 	c #A3A3A3",
"] 	c #646464",
"^ 	c #AEAEAE",
"/ 	c #AFAFAF",
"( 	c #ABABAB",
"_ 	c #A5A5A5",
": 	c #4A4A4A",
"< 	c #979797",
"[ 	c #9A9A9A",
"} 	c #9F9F9F",
"| 	c #7C7C7C",
"1 	c #373737",
"2 	c #BABABA",
"3 	c #BCBCBC",
"4 	c #AAAAAA",
"5 	c #A1A1A1",
"6 	c #8B8B8B",
"7 	c #444444",
"8 	c #A8A8A8",
"9 	c #A2A2A2",
"0 	c #909090",
"a 	c #929292",
"b 	c #474747",
"c 	c #5B5B5B",
"d 	c #7F7F7F",
"e 	c #757575",
"f 	c #545454",
"g 	c #343434",
"h 	c #919191",
"i 	c #9B9B9B",
"j 	c #5E5E5E",
"k 	c #494949",
"l 	c #2E2E2E",
"m 	c #8A8A8A",
"n 	c #8F8F8F",
"o 	c #454545",
"p 	c #727272",
"q 	c #4F4F4F",
"r 	c #8D8D8D",
"s 	c #7E7E7E",
"t 	c #767676",
"u 	c #5A5A5A",
"v 	c #3E3E3E",
"w 	c #3A3A3A",
"x 	c #6E6E6E",
"y 	c #C1C1C1",
"z 	c #9E9E9E",
"A 	c #414141",
"B 	c #3C3C3C",
"C 	c #3B3B3B",
"D 	c #ACACAC",
"E 	c #848484",
"F 	c #9D9D9D",
"G 	c #8C8C8C",
"H 	c #818181",
"I 	c #515151",
"J 	c #6F6F6F",
"K 	c #ADADAD",
"L 	c #383838",
"M 	c #747474",
"N 	c #B0B0B0",
"O 	c #B8B8B8",
"P 	c #B9B9B9",
"Q 	c #B7B7B7",
"R 	c #9C9C9C",
"S 	c #989898",
"T 	c #3F3F3F",
"U 	c #595959",
"V 	c #2C2C2C",
"W 	c #676767",
"X 	c #939393",
"Y 	c #606060",
"Z 	c #A0A0A0",
"` 	c #707070",
" .	c #B6B6B6",
"..	c #BEBEBE",
"+.	c #BDBDBD",
"@.	c #777777",
"#.	c #525252",
"$.	c #363636",
"%.	c #7D7D7D",
"&.	c #5D5D5D",
"*.	c #A7A7A7",
"=.	c #959595",
"-.	c #878787",
";.	c #585858",
">.	c #555555",
",.	c #C3C3C3",
"'.	c #464646",
").	c #393939",
"!.	c #6A6A6A",
"~.	c #353535",
"{.	c #666666",
"].	c #4B4B4B",
"^.	c #2F2F2F",
"/.	c #565656",
"(.	c #484848",
"_.	c #797979",
":.	c #A9A9A9",
"<.	c #262626",
"[.	c #C9C9C9",
"}.	c #C6C6C6",
"|.	c #CFCFCF",
"1.	c #C7C7C7",
"2.	c #C5C5C5",
"3.	c #C4C4C4",
"4.	c #5C5C5C",
"5.	c #252525",
"6.	c #404040",
"7.	c #242424",
"8.	c #434343",
"9.	c #7B7B7B",
"0.	c #575757",
"a.	c #535353",
"b.	c #A4A4A4",
"c.	c #A6A6A6",
"d.	c #717171",
"e.	c #808080",
"    . + @ # $ % & * = - ; > , ' ) ! ~ . ",
"@ { ] ^ / ( ( _ : < [ } | 1 2 2 3 ^ 4 ( ",
"5 6 7 8 9 [ 0 a b c d e f g % - h - i - ",
"j k l * { m - n ~ o p a ; q r s t ] j u ",
"v w w ] ( + a n : x y z 0 w b A v v B C ",
"D D E A F + G H I J K 6 | L # M N O P Q ",
"R S ' T U ! A > V I W b L . O ) / i - * ",
"a X Y , N Z e `  .@ ..+.@.G ( f i * 6 r ",
"c #.$.%.{ F , + 4 + n < &.< { k T B > ~ ",
"r # *.* 5 =.) -.D 0 6 h ;.a 5 #.R - * >.",
"^ F F X _ i x &.,.< G X '.* } U ^ F R u ",
"/ z R s K < ' ).( ; s !.~.' {.].m H s : ",
"^ [ i j $ - ' ^./.~ (.(.. Y t _.M & M ! ",
":.z 0 C O a ' <.Z [.[.}.[.|.|.1.2.3.$ I ",
"6 -.4.).Z =.W 5.{ D =.- i Z a + + S 0 o ",
"! ~ 6.v ~ b T 7.E < 6 h n * h h a n H 8.",
"z O 2 { m E 9.J ] 0.8.7 0./.f a.#.a.I w ",
"_ { < b._ { c.:.% / >.p a d.(.x & J c ! ",
"& 0.f U f >.>.;.;.f g e.9 R s / 4 c.9 j ",
"b > C w ~.~.~.~.~.~.1 A 8.L b . : k k 6."};
