/* XPM */
static char * quit_xpm[] = {
"114 50 489 2",
"  	c #980088",
". 	c #A12727",
"+ 	c #932324",
"@ 	c #5B151A",
"# 	c #2D0912",
"$ 	c #19040F",
"% 	c #0D010D",
"& 	c #2E0912",
"* 	c #942324",
"= 	c #721A1E",
"- 	c #19030E",
"; 	c #0F010D",
"> 	c #711A1E",
", 	c #731A1E",
"' 	c #13010D",
") 	c #12010D",
"! 	c #1E030E",
"~ 	c #15010D",
"{ 	c #60151A",
"] 	c #18010D",
"^ 	c #370911",
"/ 	c #1A010C",
"( 	c #28040E",
"_ 	c #1D010C",
": 	c #20010C",
"< 	c #23010C",
"[ 	c #25010B",
"} 	c #28010B",
"| 	c #2B010B",
"1 	c #2E010B",
"2 	c #2E3436",
"3 	c #30010B",
"4 	c #D6D6D4",
"5 	c #BDBDBC",
"6 	c #A8A8A4",
"7 	c #92928F",
"8 	c #727370",
"9 	c #61615E",
"0 	c #A0A09E",
"a 	c #20201F",
"b 	c #17250C",
"c 	c #2D4918",
"d 	c #33010A",
"e 	c #F1F1EF",
"f 	c #E6E6E4",
"g 	c #DADAD7",
"h 	c #CFCFCD",
"i 	c #C4C4C1",
"j 	c #A8A8A5",
"k 	c #767674",
"l 	c #ADADAB",
"m 	c #1E1E1D",
"n 	c #36010A",
"o 	c #B9B9B7",
"p 	c #AEAEAC",
"q 	c #BBBBBA",
"r 	c #262626",
"s 	c #6A4349",
"t 	c #B7A5A8",
"u 	c #E7E1E2",
"v 	c #F8F7F7",
"w 	c #F3F1F1",
"x 	c #DAD1D2",
"y 	c #A38B8F",
"z 	c #4C1D25",
"A 	c #A68F92",
"B 	c #FFFFFF",
"C 	c #5A2F36",
"D 	c #86676C",
"E 	c #6B454B",
"F 	c #39010A",
"G 	c #D5D5D3",
"H 	c #414140",
"I 	c #3D070F",
"J 	c #B7A3A6",
"K 	c #F9F7F7",
"L 	c #815C61",
"M 	c #A78F92",
"N 	c #774141",
"O 	c #3E040C",
"P 	c #451119",
"Q 	c #BFADAF",
"R 	c #7E5458",
"S 	c #41060D",
"T 	c #3B010A",
"U 	c #4B2933",
"V 	c #636362",
"W 	c #1A290F",
"X 	c #1A2A0F",
"Y 	c #1B2A10",
"Z 	c #304C1A",
"` 	c #B8A3A6",
" .	c #FDFDFD",
"..	c #7B4F54",
"+.	c #4B0D11",
"@.	c #591717",
"#.	c #40040C",
"$.	c #8F6F74",
"%.	c #8B5E5E",
"&.	c #44070D",
"*.	c #3E0109",
"=.	c #9C0507",
"-.	c #AE6D76",
";.	c #E4E4E2",
">.	c #1D2C11",
",.	c #1E2E13",
"'.	c #1F2F13",
").	c #324F1C",
"!.	c #704348",
"~.	c #CAB5B5",
"{.	c #794444",
"].	c #5C1C1C",
"^.	c #632525",
"/.	c #8F6363",
"(.	c #E8DFDF",
"_.	c #ECE5E5",
":.	c #470A10",
"<.	c #916F73",
"[.	c #46070D",
"}.	c #410109",
"|.	c #9F0305",
"1.	c #C8090B",
"2.	c #A54F58",
"3.	c #D6D5D2",
"4.	c #203014",
"5.	c #223315",
"6.	c #233316",
"7.	c #233417",
"8.	c #35521F",
"9.	c #C1ADAF",
"0.	c #C5AEAE",
"a.	c #511012",
"b.	c #45050B",
"c.	c #420209",
"d.	c #591F23",
"e.	c #F0EAEA",
"f.	c #B79FA2",
"g.	c #571F26",
"h.	c #F3EFEF",
"i.	c #DBCFD0",
"j.	c #AB8F92",
"k.	c #632F35",
"l.	c #C6B3B5",
"m.	c #440109",
"n.	c #FF3333",
"o.	c #DB0A0B",
"p.	c #A1353C",
"q.	c #C8C4C4",
"r.	c #5D5D5C",
"s.	c #E5E5E4",
"t.	c #253719",
"u.	c #27391A",
"v.	c #273A1B",
"w.	c #375521",
"x.	c #F0EBEB",
"y.	c #703737",
"z.	c #510F12",
"A.	c #A48387",
"B.	c #B59898",
"C.	c #4A070D",
"D.	c #B89FA2",
"E.	c #6C3232",
"F.	c #46030A",
"G.	c #DFD3D3",
"H.	c #551214",
"I.	c #AC8F92",
"J.	c #47040B",
"K.	c #C7B3B5",
"L.	c #460109",
"M.	c #9D0205",
"N.	c #A80000",
"O.	c #AE0000",
"P.	c #FF3131",
"Q.	c #FF2D2D",
"R.	c #E70607",
"S.	c #A02127",
"T.	c #BAB2B3",
"U.	c #0C0C0C",
"V.	c #293E1A",
"W.	c #2C421D",
"X.	c #2E441F",
"Y.	c #2F4520",
"Z.	c #3C5C24",
"`.	c #500F16",
" +	c #F1ECEC",
".+	c #48040A",
"++	c #7B4B50",
"@+	c #500D10",
"#+	c #B99FA2",
"$+	c #48030A",
"%+	c #AD8F92",
"&+	c #49040B",
"*+	c #9D7778",
"=+	c #490108",
"-+	c #A00104",
";+	c #FF2B2B",
">+	c #FF2F2F",
",+	c #FF1919",
"'+	c #FF0303",
")+	c #FF2525",
"!+	c #F10303",
"~+	c #A01317",
"{+	c #9C9093",
"]+	c #2E461E",
"^+	c #324B21",
"/+	c #344D21",
"(+	c #344E22",
"_+	c #3F6125",
":+	c #5B1B21",
"<+	c #E7DEDE",
"[+	c #571515",
"}+	c #764146",
"|+	c #D2C0C0",
"1+	c #531012",
"2+	c #BA9FA1",
"3+	c #4A0309",
"4+	c #AE8F92",
"5+	c #4B040A",
"6+	c #976F72",
"7+	c #4D070C",
"8+	c #4C0108",
"9+	c #FF2727",
"0+	c #FE0000",
"a+	c #FC0000",
"b+	c #FF1F1F",
"c+	c #FA0000",
"d+	c #A40B0D",
"e+	c #A69499",
"f+	c #365222",
"g+	c #3A5625",
"h+	c #3B5827",
"i+	c #3B5927",
"j+	c #436828",
"k+	c #550F15",
"l+	c #571314",
"m+	c #8B5B5F",
"n+	c #C8B2B2",
"o+	c #551112",
"p+	c #BB9FA1",
"q+	c #4D0309",
"r+	c #561214",
"s+	c #B08F92",
"t+	c #4E040A",
"u+	c #996F72",
"v+	c #4F070C",
"w+	c #4F0108",
"x+	c #FF1B1B",
"y+	c #EE0000",
"z+	c #EC0000",
"A+	c #EA0000",
"B+	c #A2090B",
"C+	c #CBC5C6",
"D+	c #385524",
"E+	c #3C5928",
"F+	c #3E5B29",
"G+	c #3F5C2A",
"H+	c #456A2A",
"I+	c #F2EDED",
"J+	c #703838",
"K+	c #7C4348",
"L+	c #CFBBBC",
"M+	c #74373C",
"N+	c #C2A7A9",
"O+	c #B09191",
"P+	c #550F12",
"Q+	c #BC9FA1",
"R+	c #500309",
"S+	c #F6F3F3",
"T+	c #571214",
"U+	c #B18F92",
"V+	c #50040A",
"W+	c #9B6F72",
"X+	c #52070C",
"Y+	c #510108",
"Z+	c #FF0D0D",
"`+	c #DC0000",
" @	c #D80000",
".@	c #FF0101",
"+@	c #A60A0B",
"@@	c #A38D93",
"#@	c #3B5925",
"$@	c #3E5D28",
"%@	c #40602B",
"&@	c #42622B",
"*@	c #476D2B",
"=@	c #C8AFB1",
"-@	c #C6B0B0",
";@	c #52040A",
">@	c #C5ABAD",
",@	c #FCFBFB",
"'@	c #BEA2A4",
")@	c #855555",
"!@	c #550C0F",
"~@	c #BD9FA1",
"{@	c #510309",
"]@	c #B28F92",
"^@	c #9C6F72",
"/@	c #53070C",
"(@	c #540108",
"_@	c #FF0505",
":@	c #FF0B0B",
"<@	c #F20000",
"[@	c #A50C0D",
"}@	c #A69398",
"|@	c #3D5F25",
"1@	c #416328",
"2@	c #44672B",
"3@	c #466A2C",
"4@	c #4A732C",
"5@	c #83474C",
"6@	c #CAB3B4",
"7@	c #743136",
"8@	c #753338",
"9@	c #D3C0C1",
"0@	c #E3D8D8",
"a@	c #55060C",
"b@	c #B69395",
"c@	c #7C4848",
"d@	c #54040A",
"e@	c #6C252B",
"f@	c #581214",
"g@	c #B38F92",
"h@	c #9C6D71",
"i@	c #8D6060",
"j@	c #55070C",
"k@	c #570107",
"l@	c #9E0205",
"m@	c #A50001",
"n@	c #AB0001",
"o@	c #E60000",
"p@	c #A30D10",
"q@	c #B2A2A5",
"r@	c #406325",
"s@	c #436728",
"t@	c #466B2B",
"u@	c #496E2D",
"v@	c #4C762C",
"w@	c #C6ABAC",
"x@	c #804D4D",
"y@	c #581314",
"z@	c #9F6F72",
"A@	c #CCB7B7",
"B@	c #601217",
"C@	c #6D2328",
"D@	c #D7C3C4",
"E@	c #581213",
"F@	c #B48F91",
"G@	c #570409",
"H@	c #966164",
"I@	c #A68282",
"J@	c #62181D",
"K@	c #5D0B10",
"L@	c #5A0107",
"M@	c #5A0108",
"N@	c #5A0208",
"O@	c #F80000",
"P@	c #DC0102",
"Q@	c #A21215",
"R@	c #BDB0B3",
"S@	c #CECECD",
"T@	c #9D9D9B",
"U@	c #565655",
"V@	c #416527",
"W@	c #45692A",
"X@	c #486D2D",
"Y@	c #4B702F",
"Z@	c #4D772E",
"`@	c #5F090E",
" #	c #C6ADAE",
".#	c #925C5E",
"+#	c #5B0308",
"@#	c #69191E",
"##	c #F5F1F1",
"$#	c #ECE4E4",
"%#	c #591213",
"&#	c #B68F91",
"*#	c #590409",
"=#	c #772F33",
"-#	c #86474C",
";#	c #590107",
">#	c #5C0107",
",#	c #CE0102",
"'#	c #A3181C",
")#	c #CAC0C2",
"!#	c #E2E2E1",
"~#	c #777776",
"{#	c #44642B",
"]#	c #426627",
"^#	c #496F2E",
"/#	c #4C7230",
"(#	c #4D7431",
"_#	c #4E792F",
":#	c #5B0107",
"<#	c #864F50",
"[#	c #EAE1E1",
"}#	c #F5F2F2",
"|#	c #E2D6D6",
"1#	c #B39595",
"2#	c #F5F1F2",
"3#	c #661B1F",
"4#	c #7B3438",
"5#	c #D3C2C2",
"6#	c #F8F5F5",
"7#	c #F4F0F0",
"8#	c #CEBBBB",
"9#	c #B78F91",
"0#	c #5B0409",
"a#	c #A47477",
"b#	c #EEE7E7",
"c#	c #FBF9F9",
"d#	c #845353",
"e#	c #5B070B",
"f#	c #5F0107",
"g#	c #9E0305",
"h#	c #A41F23",
"i#	c #DFD7DA",
"j#	c #DCDCDB",
"k#	c #ACACAB",
"l#	c #8B8B8A",
"m#	c #476A2C",
"n#	c #4A702F",
"o#	c #4D7331",
"p#	c #4E7532",
"q#	c #4F7633",
"r#	c #507733",
"s#	c #507A2F",
"t#	c #5D060B",
"u#	c #5B0F11",
"v#	c #591414",
"w#	c #591616",
"x#	c #591516",
"y#	c #5A1314",
"z#	c #5B0C0F",
"A#	c #875152",
"B#	c #AA8888",
"C#	c #5E0208",
"D#	c #5D050A",
"E#	c #5A1112",
"F#	c #591515",
"G#	c #5A1012",
"H#	c #5A1213",
"I#	c #5B0D0F",
"J#	c #5D0409",
"K#	c #5C0A0E",
"L#	c #591415",
"M#	c #620106",
"N#	c #76171F",
"O#	c #E5DFE0",
"P#	c #BFBFBD",
"Q#	c #7A7D78",
"R#	c #476B2C",
"S#	c #507834",
"T#	c #517935",
"U#	c #527935",
"V#	c #5F070A",
"W#	c #5B1112",
"X#	c #5D0B0E",
"Y#	c #650106",
"Z#	c #303336",
"`#	c #91968F",
" $	c #507F2B",
".$	c #670106",
"+$	c #6A0106",
"@$	c #6D0105",
"#$	c #700105",
"$$	c #720105",
"%$	c #750105",
"&$	c #780105",
"*$	c #7B0104",
"=$	c #800407",
"-$	c #7D0104",
";$	c #87090B",
">$	c #800104",
",$	c #921516",
"'$	c #830104",
")$	c #9E2323",
"!$	c #870305",
"~$	c #860103",
"{$	c #981A1B",
"]$	c #880103",
"^$	c #991A1B",
"/$	c #8C0305",
"($	c #8B0103",
"_$	c #9F2323",
":$	c #981515",
"<$	c #92090A",
"[$	c #8F0406",
"}$	c #8E0103",
"|$	c #92090B",
"            . . . . . . . . . . . . . . . . . . . . . . . . . . . . . . . . . . . . . . . . . . . . . . . . . . . . . . . . . . . . . . . . . . . . . . . . . . . . . . . . . . . . . . . . . . . . . . . . . . . . . .             ",
"        + @ # $ % % % % % % % % % % % % % % % % % % % % % % % % % % % % % % % % % % % % % % % % % % % % % % % % % % % % % % % % % % % % % % % % % % % % % % % % % % % % % % % % % % % % % % % % % % % % % % % % % % $ & @ *         ",
"      = - ; ; ; ; ; ; ; ; ; ; ; ; ; ; ; ; ; ; ; ; ; ; ; ; ; ; ; ; ; ; ; ; ; ; ; ; ; ; ; ; ; ; ; ; ; ; ; ; ; ; ; ; ; ; ; ; ; ; ; ; ; ; ; ; ; ; ; ; ; ; ; ; ; ; ; ; ; ; ; ; ; ; ; ; ; ; ; ; ; ; ; ; ; ; ; ; ; ; ; ; ; ; ; ; - >       ",
"    , ' ) ) ) ) ) ) ) ) ) ) ) ) ) ) ) ) ) ) ) ) ) ) ) ) ) ) ) ) ) ) ) ) ) ) ) ) ) ) ) ) ) ) ) ) ) ) ) ) ) ) ) ) ) ) ) ) ) ) ) ) ) ) ) ) ) ) ) ) ) ) ) ) ) ) ) ) ) ) ) ) ) ) ) ) ) ) ) ) ) ) ) ) ) ) ) ) ) ) ) ) ) ) ) ) ) ) ' ,     ",
"  * ! ~ ~ ~ ~ ~ ~ ~ ~ ~ ~ ~ ~ ~ ~ ~ ~ ~ ~ ~ ~ ~ ~ ~ ~ ~ ~ ~ ~ ~ ~ ~ ~ ~ ~ ~ ~ ~ ~ ~ ~ ~ ~ ~ ~ ~ ~ ~ ~ ~ ~ ~ ~ ~ ~ ~ ~ ~ ~ ~ ~ ~ ~ ~ ~ ~ ~ ~ ~ ~ ~ ~ ~ ~ ~ ~ ~ ~ ~ ~ ~ ~ ~ ~ ~ ~ ~ ~ ~ ~ ~ ~ ~ ~ ~ ~ ~ ~ ~ ~ ~ ~ ~ ~ ~ ~ ~ ~ ~ ! *   ",
"  { ] ] ] ] ] ] ] ] ] ] ] ] ] ] ] ] ] ] ] ] ] ] ] ] ] ] ] ] ] ] ] ] ] ] ] ] ] ] ] ] ] ] ] ] ] ] ] ] ] ] ] ] ] ] ] ] ] ] ] ] ] ] ] ] ] ] ] ] ] ] ] ] ] ] ] ] ] ] ] ] ] ] ] ] ] ] ] ] ] ] ] ] ] ] ] ] ] ] ] ] ] ] ] ] ] ] ] ] ] ] {   ",
". ^ / / / / / / / / / / / / / / / / / / / / / / / / / / / / / / / / / / / / / / / / / / / / / / / / / / / / / / / / / / / / / / / / / / / / / / / / / / / / / / / / / / / / / / / / / / / / / / / / / / / / / / / / / / / / / / ^ . ",
". ( _ _ _ _ _ _ _ _ _ _ _ _ _ _ _ _ _ _ _ _ _ _ _ _ _ _ _ _ _ _ _ _ _ _ _ _ _ _ _ _ _ _ _ _ _ _ _ _ _ _ _ _ _ _ _ _ _ _ _ _ _ _ _ _ _ _ _ _ _ _ _ _ _ _ _ _ _ _ _ _ _ _ _ _ _ _ _ _ _ _ _ _ _ _ _ _ _ _ _ _ _ _ _ _ _ _ _ _ _ _ ( . ",
". : : : : : : : : : : : : : : : : : : : : : : : : : : : : : : : : : : : : : : : : : : : : : : : : : : : : : : : : : : : : : : : : : : : : : : : : : : : : : : : : : : : : : : : : : : : : : : : : : : : : : : : : : : : : : : : : . ",
". < < < < < < < < < < < < < < < < < < < < < < < < < < < < < < < < < < < < < < < < < < < < < < < < < < < < < < < < < < < < < < < < < < < < < < < < < < < < < < < < < < < < < < < < < < < < < < < < < < < < < < < < < < < < < < < < . ",
". [ [ [ [ [ [ [ [ [ [ [ [ [ [ [ [ [ [ [ [ [ [ [ [ [ [ [ [ [ [ [ [ [ [ [ [ [ [ [ [ [ [ [ [ [ [ [ [ [ [ [ [ [ [ [ [ [ [ [ [ [ [ [ [ [ [ [ [ [ [ [ [ [ [ [ [ [ [ [ [ [ [ [ [ [ [ [ [ [ [ [ [ [ [ [ [ [ [ [ [ [ [ [ [ [ [ [ [ [ [ [ [ . ",
". } } } } } } } } } } } } } } } } } } } } } } } } } } } } } } } } } } } } } } } } } } } } } } } } } } } } } } } } } } } } } } } } } } } } } } } } } } } } } } } } } } } } } } } } } } } } } } } } } } } } } } } } } } } } } } } } . ",
". | | | | | | | | | | | | | | | | | | | | | | | | | | | | | | | | | | | | | | | | | | | | | | | | | | | | | | | | | | | | | | | | | | | | | | | | | | | | | | | | | | | | | | | | | | | | | | | | | | | | | | | | | | | | | | | | . ",
". 1 1 1 1 1 1 1 1 1 1 1 1 1 1 1 1 1 1 1 1 1 1 1 1 1 1 1 1 1 2 2 2 2 2 2 2 2 2 2 2 2 2 2 2 2 1 1 1 1 1 1 1 1 1 1 1 1 1 1 1 1 1 1 1 1 1 1 1 1 1 1 1 1 1 1 1 1 1 1 1 1 1 1 1 1 1 1 1 1 1 1 1 1 1 1 1 1 1 1 1 1 1 1 1 1 1 1 1 1 1 1 1 . ",
". 3 3 3 3 3 3 3 3 3 3 3 3 3 3 3 3 3 3 3 3 3 3 3 3 3 3 3 3 3 2 4 5 6 7 8 9 9 0 a b b b b c 2 3 3 3 3 3 3 3 3 3 3 3 3 3 3 3 3 3 3 3 3 3 3 3 3 3 3 3 3 3 3 3 3 3 3 3 3 3 3 3 3 3 3 3 3 3 3 3 3 3 3 3 3 3 3 3 3 3 3 3 3 3 3 3 3 3 3 3 . ",
". d d d d d d d d d d d d d d d d d d d d d d d d d d d d d 2 e f g h i j k l m b b b b c 2 d d d d d d d d d d d d d d d d d d d d d d d d d d d d d d d d d d d d d d d d d d d d d d d d d d d d d d d d d d d d d d d d d d d . ",
". n n n n n n n n n n n n n n n n n n n n n n n n n n n n n 2 e f g h i o p q r b b b b c 2 n n n n n n n n n s t u v w x y z n n n n n n n n n n n n n n n n A B B C n n n n D E n n n n n n n n n n n n n n n n n n n n n n n n . ",
". F F F F F F F F F F F F F F F F F F F F F F F F F F F F F 2 e f g h i o o G H b b b b c 2 F F F F F F F I J B B B B B B B K L F F F F F F F F F F F F F F F M B B N O F P Q B R S F F F F F F F F F F F F F F F F F F F F F F F . ",
". T T T T T T T T T T T T T T T T T T T T T T T T T T T T T U e f g h i o o G V W X Y Y Z 2 T T T T T T T ` B B B B B B B B B  ...T T T T T T T T T T T T T T T +.@.@.#.T $.B B %.&.T T T T T T T T T T T T T T T T T T T T T T T . ",
". *.*.*.*.*.*.*.*.*.*.*.*.*.*.*.*.*.*.*.*.*.*.*.*.*.*.*.*.*.=.-.;.g h i o o G V >.,.,.'.).2 *.*.*.*.*.*.!.B B B ~.{.].^./.(.B B _.:.*.*.*.*.*.*.*.*.*.*.*.*.*.*.*.*.*.*.*.<.B B %.[.*.*.*.*.*.*.*.*.*.*.*.*.*.*.*.*.*.*.*.*.*.*.*.. ",
". }.}.}.}.}.}.}.}.}.}.}.}.}.}.}.}.}.}.}.}.}.}.}.}.}.}.}.}.}.|.1.2.3.h i o o G V 4.5.6.7.8.2 }.}.}.}.}.}.9.B B 0.@.a.b.}.c.d.e.B B %.}.f.B B g.}.}.}.h.B i.}.}.j.B B k.}.l.B B B B B k.}.}.}.}.}.}.}.}.}.}.}.}.}.}.}.}.}.}.}.}.}.}.. ",
". m.m.m.m.m.m.m.m.m.m.m.m.m.m.m.m.m.m.m.m.m.m.m.m.m.m.m.m.m.|.n.o.p.q.i o r.s.V 7.t.u.v.w.2 m.m.m.m.m.m.x.B B y.z.m.m.m.m.m.A.B B B.C.D.B B E.F.m.m.h.B G.H.m.I.B B N J.K.B B B B B N J.m.m.m.m.m.m.m.m.m.m.m.m.m.m.m.m.m.m.m.m.m.. ",
". L.L.L.L.L.L.L.L.L.L.L.L.L.L.L.L.L.L.L.L.L.L.L.M.N.N.N.N.N.O.P.Q.R.S.T.o r.U.V V.W.X.Y.Z.2 L.L.L.L.L.`.B B  +@..+L.L.L.L.L.++B B ~.@+#+B B E.$+L.L.h.B G.H.L.%+B B N &+L.*+B B %.@.@.&+L.L.L.L.L.L.L.L.L.L.L.L.L.L.L.L.L.L.L.L.L.. ",
". =+=+=+=+=+=+=+=+=+=+=+=+=+=+=+=+=+=+=+=+=+=+=+-+;+>+>+>+P.>+,+'+)+!+~+{+U.G V ]+^+/+(+_+2 =+=+=+=+=+:+B B <+[+=+=+=+=+=+=+}+B B |+1+2+B B E.3+=+=+h.B G.H.=+4+B B N 5+=+6+B B %.7+=+=+=+=+=+=+=+=+=+=+=+=+=+=+=+=+=+=+=+=+=+=+=+. ",
". 8+8+8+8+8+8+8+8+8+8+8+8+8+8+8+8+8+8+8+8+8+8+8+-+9+0+a+a+a+a+a+a+0+b+c+d+e+G V f+g+h+i+j+2 8+8+8+8+8+k+B B  +l+8+8+8+8+8+8+m+B B n+o+p+B B E.q+8+8+h.B G.r+8+s+B B N t+8+u+B B %.v+8+8+8+8+8+8+8+8+8+8+8+8+8+8+8+8+8+8+8+8+8+8+8+. ",
". w+w+w+w+w+w+w+w+w+w+w+w+w+w+w+w+w+w+w+w+w+w+w+-+x+y+z+A+A+z+z+z+z+z+x+A+B+C+V D+E+F+G+H+2 w+w+w+w+w+w+I+B B J+w+w+K+L+M+w+N+B B O+P+Q+B B E.R+w+w+S+B G.T+w+U+B B N V+w+W+B B %.X+w+w+w+w+w+w+w+w+w+w+w+w+w+w+w+w+w+w+w+w+w+w+w+. ",
". Y+Y+Y+Y+Y+Y+Y+Y+Y+Y+Y+Y+Y+Y+Y+Y+Y+Y+Y+Y+Y+Y+Y+-+Z+`+ @ @ @ @ @ @ @.@c++@@@G V #@$@%@&@*@2 Y+Y+Y+Y+Y+Y+=@B B -@;@Y+>@B ,@'@ .B B )@!@~@B B y.{@Y+Y+,@B G.T+Y+]@B B N ;@Y+^@B B %./@Y+Y+Y+Y+Y+Y+Y+Y+Y+Y+Y+Y+Y+Y+Y+Y+Y+Y+Y+Y+Y+Y+Y+. ",
". (@(@(@(@(@(@(@(@(@(@(@(@(@(@(@(@(@(@(@(@(@(@(@-+_@:@:@:@:@:@<@ @a+<@[@}@o G V |@1@2@3@4@2 (@(@(@(@(@(@5@B B B 6@7@8@9@B B B B 0@@.a@b@B B c@d@(@e@B B G.f@(@g@B B N d@(@h@B B i@j@(@(@(@(@(@(@(@(@(@(@(@(@(@(@(@(@(@(@(@(@(@(@(@. ",
". k@k@k@k@k@k@k@k@k@k@k@k@k@k@k@k@k@k@k@k@k@k@k@l@m@m@m@m@m@n@.@c+o@p@q@o o s.V r@s@t@u@v@2 k@k@k@k@k@k@k@w@B B B B B B B B B B x@y@k@z@B B A@B@C@D@B B G.E@k@F@B B N G@k@H@B B I@J@K@k@k@k@k@k@k@k@k@k@k@k@k@k@k@k@k@k@k@k@k@k@k@. ",
". L@L@L@L@L@L@L@L@L@L@L@L@L@L@L@L@L@L@L@L@L@L@L@M@N@N@N@N@N@|.O@P@Q@R@i G S@T@U@V@W@X@Y@Z@2 L@L@L@L@L@L@L@`@ #B B B B B B B B B <+.#+#@###B B B B K $#B G.%#L@&#B B N *#L@=#B B B B -#;#L@L@L@L@L@L@L@L@L@L@L@L@L@L@L@L@L@L@L@L@L@. ",
". >#>#>#>#>#>#>#>#>#>#>#>#>#>#>#>#>#>#>#>#>#>#>#>#>#>#>#>#>#|.,#'#)#!#G T@~#{#]#t@^#/#(#_#2 >#>#>#>#>#>#>#>#:#<#0.[#K }#|#1#n+B B 2#3#:#4#5#6#7#8#c@|+B G.%#>#9#B B N 0#>#>#a#b#c#(.d#e#>#>#>#>#>#>#>#>#>#>#>#>#>#>#>#>#>#>#>#>#>#. ",
". f#f#f#f#f#f#f#f#f#f#f#f#f#f#f#f#f#f#f#f#f#f#f#f#f#f#f#f#f#g#h#i#j#k#l#m#W@X@n#o#p#q#r#s#2 f#f#f#f#f#f#f#f#f#f#t#u#v#w#x#y#z#A#5#B#x#C#f#D#E#w#F#G#D#E#@.H#f#f#I#@.@.J#f#f#f#K#L#w#v#t#f#f#f#f#f#f#f#f#f#f#f#f#f#f#f#f#f#f#f#f#f#. ",
". M#M#M#M#M#M#M#M#M#M#M#M#M#M#M#M#M#M#M#M#M#M#M#M#M#M#M#M#M#N#O#P#Q#R#X@Y@o#q#S#T#T#U#U#U#2 M#M#M#M#M#M#M#M#M#M#M#M#M#M#M#M#M#M#V#W#X#M#M#M#M#M#M#M#M#M#M#M#M#M#M#M#M#M#M#M#M#M#M#M#M#M#M#M#M#M#M#M#M#M#M#M#M#M#M#M#M#M#M#M#M#M#M#. ",
". Y#Y#Y#Y#Y#Y#Y#Y#Y#Y#Y#Y#Y#Y#Y#Y#Y#Y#Y#Y#Y#Y#Y#Y#Y#Y#Y#Y#Y#Z#`# $ $ $ $ $ $ $ $ $ $ $ $ $2 Y#Y#Y#Y#Y#Y#Y#Y#Y#Y#Y#Y#Y#Y#Y#Y#Y#Y#Y#Y#Y#Y#Y#Y#Y#Y#Y#Y#Y#Y#Y#Y#Y#Y#Y#Y#Y#Y#Y#Y#Y#Y#Y#Y#Y#Y#Y#Y#Y#Y#Y#Y#Y#Y#Y#Y#Y#Y#Y#Y#Y#Y#Y#Y#Y#Y#Y#. ",
". .$.$.$.$.$.$.$.$.$.$.$.$.$.$.$.$.$.$.$.$.$.$.$.$.$.$.$.$.$2 2 2 2 2 2 2 2 2 2 2 2 2 2 2 2 .$.$.$.$.$.$.$.$.$.$.$.$.$.$.$.$.$.$.$.$.$.$.$.$.$.$.$.$.$.$.$.$.$.$.$.$.$.$.$.$.$.$.$.$.$.$.$.$.$.$.$.$.$.$.$.$.$.$.$.$.$.$.$.$.$.$.$. ",
". +$+$+$+$+$+$+$+$+$+$+$+$+$+$+$+$+$+$+$+$+$+$+$+$+$+$+$+$+$+$+$+$+$+$+$+$+$+$+$+$+$+$+$+$+$+$+$+$+$+$+$+$+$+$+$+$+$+$+$+$+$+$+$+$+$+$+$+$+$+$+$+$+$+$+$+$+$+$+$+$+$+$+$+$+$+$+$+$+$+$+$+$+$+$+$+$+$+$+$+$+$+$+$+$+$+$+$+$+$+$+$+$. ",
". @$@$@$@$@$@$@$@$@$@$@$@$@$@$@$@$@$@$@$@$@$@$@$@$@$@$@$@$@$@$@$@$@$@$@$@$@$@$@$@$@$@$@$@$@$@$@$@$@$@$@$@$@$@$@$@$@$@$@$@$@$@$@$@$@$@$@$@$@$@$@$@$@$@$@$@$@$@$@$@$@$@$@$@$@$@$@$@$@$@$@$@$@$@$@$@$@$@$@$@$@$@$@$@$@$@$@$@$@$@$@$@$. ",
". #$#$#$#$#$#$#$#$#$#$#$#$#$#$#$#$#$#$#$#$#$#$#$#$#$#$#$#$#$#$#$#$#$#$#$#$#$#$#$#$#$#$#$#$#$#$#$#$#$#$#$#$#$#$#$#$#$#$#$#$#$#$#$#$#$#$#$#$#$#$#$#$#$#$#$#$#$#$#$#$#$#$#$#$#$#$#$#$#$#$#$#$#$#$#$#$#$#$#$#$#$#$#$#$#$#$#$#$#$#$#$#$. ",
". $$$$$$$$$$$$$$$$$$$$$$$$$$$$$$$$$$$$$$$$$$$$$$$$$$$$$$$$$$$$$$$$$$$$$$$$$$$$$$$$$$$$$$$$$$$$$$$$$$$$$$$$$$$$$$$$$$$$$$$$$$$$$$$$$$$$$$$$$$$$$$$$$$$$$$$$$$$$$$$$$$$$$$$$$$$$$$$$$$$$$$$$$$$$$$$$$$$$$$$$$$$$$$$$$$$$$$$$$$$$$$$$. ",
". %$%$%$%$%$%$%$%$%$%$%$%$%$%$%$%$%$%$%$%$%$%$%$%$%$%$%$%$%$%$%$%$%$%$%$%$%$%$%$%$%$%$%$%$%$%$%$%$%$%$%$%$%$%$%$%$%$%$%$%$%$%$%$%$%$%$%$%$%$%$%$%$%$%$%$%$%$%$%$%$%$%$%$%$%$%$%$%$%$%$%$%$%$%$%$%$%$%$%$%$%$%$%$%$%$%$%$%$%$%$%$%$. ",
". &$&$&$&$&$&$&$&$&$&$&$&$&$&$&$&$&$&$&$&$&$&$&$&$&$&$&$&$&$&$&$&$&$&$&$&$&$&$&$&$&$&$&$&$&$&$&$&$&$&$&$&$&$&$&$&$&$&$&$&$&$&$&$&$&$&$&$&$&$&$&$&$&$&$&$&$&$&$&$&$&$&$&$&$&$&$&$&$&$&$&$&$&$&$&$&$&$&$&$&$&$&$&$&$&$&$&$&$&$&$&$&$. ",
". *$*$*$*$*$*$*$*$*$*$*$*$*$*$*$*$*$*$*$*$*$*$*$*$*$*$*$*$*$*$*$*$*$*$*$*$*$*$*$*$*$*$*$*$*$*$*$*$*$*$*$*$*$*$*$*$*$*$*$*$*$*$*$*$*$*$*$*$*$*$*$*$*$*$*$*$*$*$*$*$*$*$*$*$*$*$*$*$*$*$*$*$*$*$*$*$*$*$*$*$*$*$*$*$*$*$*$*$*$*$*$*$. ",
". =$-$-$-$-$-$-$-$-$-$-$-$-$-$-$-$-$-$-$-$-$-$-$-$-$-$-$-$-$-$-$-$-$-$-$-$-$-$-$-$-$-$-$-$-$-$-$-$-$-$-$-$-$-$-$-$-$-$-$-$-$-$-$-$-$-$-$-$-$-$-$-$-$-$-$-$-$-$-$-$-$-$-$-$-$-$-$-$-$-$-$-$-$-$-$-$-$-$-$-$-$-$-$-$-$-$-$-$-$-$-$=$. ",
". ;$>$>$>$>$>$>$>$>$>$>$>$>$>$>$>$>$>$>$>$>$>$>$>$>$>$>$>$>$>$>$>$>$>$>$>$>$>$>$>$>$>$>$>$>$>$>$>$>$>$>$>$>$>$>$>$>$>$>$>$>$>$>$>$>$>$>$>$>$>$>$>$>$>$>$>$>$>$>$>$>$>$>$>$>$>$>$>$>$>$>$>$>$>$>$>$>$>$>$>$>$>$>$>$>$>$>$>$>$>$>$;$. ",
"  ,$'$'$'$'$'$'$'$'$'$'$'$'$'$'$'$'$'$'$'$'$'$'$'$'$'$'$'$'$'$'$'$'$'$'$'$'$'$'$'$'$'$'$'$'$'$'$'$'$'$'$'$'$'$'$'$'$'$'$'$'$'$'$'$'$'$'$'$'$'$'$'$'$'$'$'$'$'$'$'$'$'$'$'$'$'$'$'$'$'$'$'$'$'$'$'$'$'$'$'$'$'$'$'$'$'$'$'$'$'$'$,$  ",
"  )$!$~$~$~$~$~$~$~$~$~$~$~$~$~$~$~$~$~$~$~$~$~$~$~$~$~$~$~$~$~$~$~$~$~$~$~$~$~$~$~$~$~$~$~$~$~$~$~$~$~$~$~$~$~$~$~$~$~$~$~$~$~$~$~$~$~$~$~$~$~$~$~$~$~$~$~$~$~$~$~$~$~$~$~$~$~$~$~$~$~$~$~$~$~$~$~$~$~$~$~$~$~$~$~$~$~$~$~$~$!$)$  ",
"    {$]$]$]$]$]$]$]$]$]$]$]$]$]$]$]$]$]$]$]$]$]$]$]$]$]$]$]$]$]$]$]$]$]$]$]$]$]$]$]$]$]$]$]$]$]$]$]$]$]$]$]$]$]$]$]$]$]$]$]$]$]$]$]$]$]$]$]$]$]$]$]$]$]$]$]$]$]$]$]$]$]$]$]$]$]$]$]$]$]$]$]$]$]$]$]$]$]$]$]$]$]$]$]$]$]$]$]$]${$    ",
"      ^$/$($($($($($($($($($($($($($($($($($($($($($($($($($($($($($($($($($($($($($($($($($($($($($($($($($($($($($($($($($($($($($($($($($($($($($($($($($($($($($($($($($($($($($($($($($($($($($($($($($($($($($($($($/$^$      ",
"        _$:$<$[$}$}$}$}$}$}$}$}$}$}$}$}$}$}$}$}$}$}$}$}$}$}$}$}$}$}$}$}$}$}$}$}$}$}$}$}$}$}$}$}$}$}$}$}$}$}$}$}$}$}$}$}$}$}$}$}$}$}$}$}$}$}$}$}$}$}$}$}$}$}$}$}$}$}$}$}$}$}$}$}$}$}$}$}$}$}$}$}$}$}$}$}$}$}$}$}$}$}$[$|$:$_$        ",
"            . . . . . . . . . . . . . . . . . . . . . . . . . . . . . . . . . . . . . . . . . . . . . . . . . . . . . . . . . . . . . . . . . . . . . . . . . . . . . . . . . . . . . . . . . . . . . . . . . . . . . .             "};
