/* XPM */
static char * quit_selected_xpm[] = {
"114 50 482 2",
"  	c #980088",
". 	c #A12727",
"+ 	c #A92A2A",
"@ 	c #CD3737",
"# 	c #EA4242",
"$ 	c #F64646",
"% 	c #FF4A4A",
"& 	c #E94242",
"* 	c #BE3232",
"= 	c #F64747",
"- 	c #FD4A4A",
"; 	c #BD3131",
"> 	c #FA4848",
", 	c #FB4949",
"' 	c #F24545",
") 	c #F94848",
"! 	c #C93636",
"~ 	c #F74848",
"{ 	c #E23F3F",
"] 	c #F54747",
"^ 	c #EB4343",
"/ 	c #F34646",
"( 	c #F14545",
"_ 	c #EE4545",
": 	c #EC4444",
"< 	c #EA4343",
"[ 	c #E84242",
"} 	c #E64242",
"| 	c #2E3436",
"1 	c #E44141",
"2 	c #D6D6D4",
"3 	c #BDBDBC",
"4 	c #A8A8A4",
"5 	c #92928F",
"6 	c #727370",
"7 	c #61615E",
"8 	c #A0A09E",
"9 	c #20201F",
"0 	c #17250C",
"a 	c #2D4918",
"b 	c #E24040",
"c 	c #F1F1EF",
"d 	c #E6E6E4",
"e 	c #DADAD7",
"f 	c #CFCFCD",
"g 	c #C4C4C1",
"h 	c #A8A8A5",
"i 	c #767674",
"j 	c #ADADAB",
"k 	c #1E1E1D",
"l 	c #E04040",
"m 	c #B9B9B7",
"n 	c #AEAEAC",
"o 	c #BBBBBA",
"p 	c #262626",
"q 	c #E87171",
"r 	c #F4BBBB",
"s 	c #FBE8E8",
"t 	c #FEF8F8",
"u 	c #FDF4F4",
"v 	c #F9DCDC",
"w 	c #F0A7A7",
"x 	c #E35555",
"y 	c #F1AAAA",
"z 	c #FFFFFF",
"A 	c #E56262",
"B 	c #EC8C8C",
"C 	c #E87373",
"D 	c #DD3F3F",
"E 	c #D5D5D3",
"F 	c #414140",
"G 	c #DD4343",
"H 	c #F2B9B9",
"I 	c #FBF8F8",
"J 	c #DF7F7F",
"K 	c #F0AAAA",
"L 	c #774141",
"M 	c #C53737",
"N 	c #DF4B4B",
"O 	c #F4C1C1",
"P 	c #C26E6E",
"Q 	c #B93434",
"R 	c #DB3E3E",
"S 	c #4B2933",
"T 	c #636362",
"U 	c #1A290F",
"V 	c #1A2A0F",
"W 	c #1B2A10",
"X 	c #304C1A",
"Y 	c #F1B9B9",
"Z 	c #FDFDFD",
"` 	c #C46C6C",
" .	c #922828",
"..	c #591717",
"+.	c #C33636",
"@.	c #EA9191",
"#.	c #8B5E5E",
"$.	c #B33232",
"%.	c #D93D3D",
"&.	c #9C0507",
"*.	c #AE6D76",
"=.	c #E4E4E2",
"-.	c #1D2C11",
";.	c #1E2E13",
">.	c #1F2F13",
",.	c #324F1C",
"'.	c #E26F6F",
").	c #CAB5B5",
"!.	c #794444",
"~.	c #5C1C1C",
"{.	c #632525",
"].	c #8F6363",
"^.	c #E8DFDF",
"/.	c #ECE5E5",
"(.	c #B43434",
"_.	c #E99191",
":.	c #B13131",
"<.	c #D73D3D",
"[.	c #9F0305",
"}.	c #C8090B",
"|.	c #A54F58",
"1.	c #D6D5D2",
"2.	c #203014",
"3.	c #223315",
"4.	c #233316",
"5.	c #233417",
"6.	c #35521F",
"7.	c #F2C0C0",
"8.	c #C5AEAE",
"9.	c #802222",
"0.	c #BE3535",
"a.	c #D43C3C",
"b.	c #CF3A3A",
"c.	c #B44343",
"d.	c #F2EBEB",
"e.	c #966262",
"f.	c #D53C3C",
"g.	c #EFB5B5",
"h.	c #DB5353",
"i.	c #FCF2F2",
"j.	c #F7DADA",
"k.	c #EDA9A9",
"l.	c #DE6060",
"m.	c #F3C4C4",
"n.	c #FF3333",
"o.	c #DB0A0B",
"p.	c #A1353C",
"q.	c #C8C4C4",
"r.	c #5D5D5C",
"s.	c #E5E5E4",
"t.	c #253719",
"u.	c #27391A",
"v.	c #273A1B",
"w.	c #375521",
"x.	c #FBEFEF",
"y.	c #703737",
"z.	c #832323",
"A.	c #E49D9D",
"B.	c #B59898",
"C.	c #AD3030",
"D.	c #6C3232",
"E.	c #C63737",
"F.	c #DFD3D3",
"G.	c #701D1D",
"H.	c #ECA9A9",
"I.	c #F2C4C4",
"J.	c #D33B3B",
"K.	c #A40507",
"L.	c #A80000",
"M.	c #AE0000",
"N.	c #FF3131",
"O.	c #FF2D2D",
"P.	c #E70607",
"Q.	c #A02127",
"R.	c #BAB2B3",
"S.	c #0C0C0C",
"T.	c #293E1A",
"U.	c #2C421D",
"V.	c #2E441F",
"W.	c #2F4520",
"X.	c #3C5C24",
"Y.	c #D54545",
"Z.	c #F1ECEC",
"`.	c #C13535",
" +	c #DF7474",
".+	c #8E2626",
"++	c #EEB4B4",
"@+	c #C43636",
"#+	c #EBA8A8",
"$+	c #BC3434",
"%+	c #B58181",
"&+	c #D13A3A",
"*+	c #A40305",
"=+	c #FF2B2B",
"-+	c #FF2F2F",
";+	c #FF1919",
">+	c #FF0303",
",+	c #FF2525",
"'+	c #F10303",
")+	c #A01317",
"!+	c #9C9093",
"~+	c #2E461E",
"{+	c #324B21",
"]+	c #344D21",
"^+	c #344E22",
"/+	c #3F6125",
"(+	c #D54E4E",
"_+	c #E7DEDE",
":+	c #621919",
"<+	c #DC6B6B",
"[+	c #D2C0C0",
"}+	c #7E2222",
"|+	c #EDB4B4",
"1+	c #C23535",
"2+	c #6F1D1D",
"3+	c #EAA8A8",
"4+	c #BB3333",
"5+	c #E48F8F",
"6+	c #AC2F2F",
"7+	c #FF2727",
"8+	c #FE0000",
"9+	c #FC0000",
"0+	c #FF1F1F",
"a+	c #FA0000",
"b+	c #A40B0D",
"c+	c #A69499",
"d+	c #365222",
"e+	c #3A5625",
"f+	c #3B5827",
"g+	c #3B5927",
"h+	c #436828",
"i+	c #D14444",
"j+	c #691B1B",
"k+	c #E07F7F",
"l+	c #C8B2B2",
"m+	c #782020",
"n+	c #ECB4B4",
"o+	c #FBF2F2",
"p+	c #E9A8A8",
"q+	c #B93333",
"r+	c #E38F8F",
"s+	c #AA2F2F",
"t+	c #CC3939",
"u+	c #FF1B1B",
"v+	c #EE0000",
"w+	c #EC0000",
"x+	c #EA0000",
"y+	c #A2090B",
"z+	c #CBC5C6",
"A+	c #385524",
"B+	c #3C5928",
"C+	c #3E5B29",
"D+	c #3F5C2A",
"E+	c #456A2A",
"F+	c #FAF0F0",
"G+	c #793B3B",
"H+	c #D96C6C",
"I+	c #F1C9C9",
"J+	c #D66363",
"K+	c #EDBABA",
"L+	c #B09191",
"M+	c #7F2222",
"N+	c #EBB4B4",
"O+	c #BE3434",
"P+	c #FCF5F5",
"Q+	c #6E1D1D",
"R+	c #E8A7A7",
"S+	c #B73232",
"T+	c #E28E8E",
"U+	c #A82E2E",
"V+	c #CA3838",
"W+	c #FF0D0D",
"X+	c #DC0000",
"Y+	c #D80000",
"Z+	c #FF0101",
"`+	c #A60A0B",
" @	c #A38D93",
".@	c #3B5925",
"+@	c #3E5D28",
"@@	c #40602B",
"#@	c #42622B",
"$@	c #476D2B",
"%@	c #EEC0C0",
"&@	c #C6B0B0",
"*@	c #EDBDBD",
"=@	c #FCFBFB",
"-@	c #E2B2B2",
";@	c #FEFDFD",
">@	c #855555",
",@	c #EAB3B3",
"'@	c #FEFBFB",
")@	c #E7A7A7",
"!@	c #B53232",
"~@	c #E08E8E",
"{@	c #A72D2D",
"]@	c #C83838",
"^@	c #FF0505",
"/@	c #FF0B0B",
"(@	c #F20000",
"_@	c #A50C0D",
":@	c #A69398",
"<@	c #3D5F25",
"[@	c #416328",
"}@	c #44672B",
"|@	c #466A2C",
"1@	c #4A732C",
"2@	c #D76E6E",
"3@	c #D6B9B9",
"4@	c #D25D5D",
"5@	c #D25F5F",
"6@	c #DDC5C5",
"7@	c #E3D8D8",
"8@	c #E7AAAA",
"9@	c #7C4848",
"0@	c #B83333",
"a@	c #CF5454",
"b@	c #6D1D1D",
"c@	c #E6A7A7",
"d@	c #DF8C8C",
"e@	c #8D6060",
"f@	c #A52D2D",
"g@	c #A30507",
"h@	c #A60001",
"i@	c #AB0001",
"j@	c #E60000",
"k@	c #A30D10",
"l@	c #B2A2A5",
"m@	c #406325",
"n@	c #436728",
"o@	c #466B2B",
"p@	c #496E2D",
"q@	c #4C762C",
"r@	c #E1B8B8",
"s@	c #804D4D",
"t@	c #6B1C1C",
"u@	c #DE8D8D",
"v@	c #CCB7B7",
"w@	c #B23B3B",
"x@	c #CD5151",
"y@	c #F1CFCF",
"z@	c #E5A6A6",
"A@	c #B23131",
"B@	c #DB8282",
"C@	c #A68282",
"D@	c #A93A3A",
"E@	c #C83E3E",
"F@	c #C13536",
"G@	c #C03536",
"H@	c #F80000",
"I@	c #DC0102",
"J@	c #A21215",
"K@	c #BDB0B3",
"L@	c #CECECD",
"M@	c #9D9D9B",
"N@	c #565655",
"O@	c #416527",
"P@	c #45692A",
"Q@	c #486D2D",
"R@	c #4B702F",
"S@	c #4D772E",
"T@	c #C53C3C",
"U@	c #D2B3B3",
"V@	c #C77676",
"W@	c #C43737",
"X@	c #C94848",
"Y@	c #F9F3F3",
"Z@	c #FCF8F8",
"`@	c #EFE6E6",
" #	c #6D1C1C",
".#	c #E4A6A6",
"+#	c #B03030",
"@#	c #CE5A5A",
"##	c #CE6B6B",
"$#	c #BF3434",
"%#	c #CE0102",
"&#	c #A3181C",
"*#	c #CAC0C2",
"=#	c #E2E2E1",
"-#	c #777776",
";#	c #44642B",
">#	c #426627",
",#	c #496F2E",
"'#	c #4C7230",
")#	c #4D7431",
"!#	c #4E792F",
"~#	c #9F5C5C",
"{#	c #EAE1E1",
"]#	c #F9F7F7",
"^#	c #F5F2F2",
"/#	c #E2D6D6",
"(#	c #B39595",
"_#	c #F6F2F2",
":#	c #A43A3A",
"<#	c #C13434",
"[#	c #C55A5A",
"}#	c #D5C2C2",
"|#	c #F8F5F5",
"1#	c #F4F0F0",
"2#	c #CEBBBB",
"3#	c #D3C0C0",
"4#	c #6C1C1C",
"5#	c #E4A5A5",
"6#	c #AE2F2F",
"7#	c #D28C8C",
"8#	c #EEE7E7",
"9#	c #FBF9F9",
"0#	c #845353",
"a#	c #A52C2C",
"b#	c #C03535",
"c#	c #9E0305",
"d#	c #A41F23",
"e#	c #DFD7DA",
"f#	c #DCDCDB",
"g#	c #ACACAB",
"h#	c #8B8B8A",
"i#	c #476A2C",
"j#	c #4A702F",
"k#	c #4D7331",
"l#	c #4E7532",
"m#	c #4F7633",
"n#	c #507733",
"o#	c #507A2F",
"p#	c #A42C2C",
"q#	c #7C2121",
"r#	c #651A1A",
"s#	c #5C1717",
"t#	c #5E1818",
"u#	c #6A1C1C",
"v#	c #882424",
"w#	c #9F5D5D",
"x#	c #D3C2C2",
"y#	c #AA8888",
"z#	c #AB2F2F",
"A#	c #731E1E",
"B#	c #5D1818",
"C#	c #5F1818",
"D#	c #771F1F",
"E#	c #AA2E2E",
"F#	c #741F1F",
"G#	c #862424",
"H#	c #AD2F2F",
"I#	c #912727",
"J#	c #631A1A",
"K#	c #5B1717",
"L#	c #661B1B",
"M#	c #76171F",
"N#	c #E5DFE0",
"O#	c #BFBFBD",
"P#	c #7A7D78",
"Q#	c #476B2C",
"R#	c #507834",
"S#	c #517935",
"T#	c #527935",
"U#	c #A22C2C",
"V#	c #8C2525",
"W#	c #303336",
"X#	c #91968F",
"Y#	c #507F2B",
"Z#	c #B93232",
"`#	c #B53131",
" $	c #B33030",
".$	c #B13030",
"+$	c #AF2F2F",
"@$	c #AD2E2E",
"#$	c #AA2D2D",
"$$	c #A72C2C",
"%$	c #A82D2D",
"&$	c #A42A2A",
"*$	c #A62C2C",
"=$	c #A22828",
"-$	c #A42B2B",
";$	c #A12929",
">$	c #A22A2A",
",$	c #A02727",
"'$	c #A02929",
")$	c #A02A2A",
"!$	c #9E2828",
"~$	c #9E2929",
"{$	c #9E2727",
"]$	c #9D2727",
"^$	c #9C2727",
"/$	c #9C2828",
"            . . . . . . . . . . . . . . . . . . . . . . . . . . . . . . . . . . . . . . . . . . . . . . . . . . . . . . . . . . . . . . . . . . . . . . . . . . . . . . . . . . . . . . . . . . . . . . . . . . . . . .             ",
"        + @ # $ % % % % % % % % % % % % % % % % % % % % % % % % % % % % % % % % % % % % % % % % % % % % % % % % % % % % % % % % % % % % % % % % % % % % % % % % % % % % % % % % % % % % % % % % % % % % % % % % % % $ & @ +         ",
"      * = - - - - - - - - - - - - - - - - - - - - - - - - - - - - - - - - - - - - - - - - - - - - - - - - - - - - - - - - - - - - - - - - - - - - - - - - - - - - - - - - - - - - - - - - - - - - - - - - - - - - - - - - = *       ",
"    ; > , , , , , , , , , , , , , , , , , , , , , , , , , , , , , , , , , , , , , , , , , , , , , , , , , , , , , , , , , , , , , , , , , , , , , , , , , , , , , , , , , , , , , , , , , , , , , , , , , , , , , , , , , , > ;     ",
"  + ' ) ) ) ) ) ) ) ) ) ) ) ) ) ) ) ) ) ) ) ) ) ) ) ) ) ) ) ) ) ) ) ) ) ) ) ) ) ) ) ) ) ) ) ) ) ) ) ) ) ) ) ) ) ) ) ) ) ) ) ) ) ) ) ) ) ) ) ) ) ) ) ) ) ) ) ) ) ) ) ) ) ) ) ) ) ) ) ) ) ) ) ) ) ) ) ) ) ) ) ) ) ) ) ) ) ) ) ) ' +   ",
"  ! ~ ~ ~ ~ ~ ~ ~ ~ ~ ~ ~ ~ ~ ~ ~ ~ ~ ~ ~ ~ ~ ~ ~ ~ ~ ~ ~ ~ ~ ~ ~ ~ ~ ~ ~ ~ ~ ~ ~ ~ ~ ~ ~ ~ ~ ~ ~ ~ ~ ~ ~ ~ ~ ~ ~ ~ ~ ~ ~ ~ ~ ~ ~ ~ ~ ~ ~ ~ ~ ~ ~ ~ ~ ~ ~ ~ ~ ~ ~ ~ ~ ~ ~ ~ ~ ~ ~ ~ ~ ~ ~ ~ ~ ~ ~ ~ ~ ~ ~ ~ ~ ~ ~ ~ ~ ~ ~ ~ ~ ~ !   ",
". { ] ] ] ] ] ] ] ] ] ] ] ] ] ] ] ] ] ] ] ] ] ] ] ] ] ] ] ] ] ] ] ] ] ] ] ] ] ] ] ] ] ] ] ] ] ] ] ] ] ] ] ] ] ] ] ] ] ] ] ] ] ] ] ] ] ] ] ] ] ] ] ] ] ] ] ] ] ] ] ] ] ] ] ] ] ] ] ] ] ] ] ] ] ] ] ] ] ] ] ] ] ] ] ] ] ] ] ] ] ] { . ",
". ^ / / / / / / / / / / / / / / / / / / / / / / / / / / / / / / / / / / / / / / / / / / / / / / / / / / / / / / / / / / / / / / / / / / / / / / / / / / / / / / / / / / / / / / / / / / / / / / / / / / / / / / / / / / / / / / ^ . ",
". ( ( ( ( ( ( ( ( ( ( ( ( ( ( ( ( ( ( ( ( ( ( ( ( ( ( ( ( ( ( ( ( ( ( ( ( ( ( ( ( ( ( ( ( ( ( ( ( ( ( ( ( ( ( ( ( ( ( ( ( ( ( ( ( ( ( ( ( ( ( ( ( ( ( ( ( ( ( ( ( ( ( ( ( ( ( ( ( ( ( ( ( ( ( ( ( ( ( ( ( ( ( ( ( ( ( ( ( ( ( ( ( . ",
". _ _ _ _ _ _ _ _ _ _ _ _ _ _ _ _ _ _ _ _ _ _ _ _ _ _ _ _ _ _ _ _ _ _ _ _ _ _ _ _ _ _ _ _ _ _ _ _ _ _ _ _ _ _ _ _ _ _ _ _ _ _ _ _ _ _ _ _ _ _ _ _ _ _ _ _ _ _ _ _ _ _ _ _ _ _ _ _ _ _ _ _ _ _ _ _ _ _ _ _ _ _ _ _ _ _ _ _ _ _ _ _ . ",
". : : : : : : : : : : : : : : : : : : : : : : : : : : : : : : : : : : : : : : : : : : : : : : : : : : : : : : : : : : : : : : : : : : : : : : : : : : : : : : : : : : : : : : : : : : : : : : : : : : : : : : : : : : : : : : : : . ",
". < < < < < < < < < < < < < < < < < < < < < < < < < < < < < < < < < < < < < < < < < < < < < < < < < < < < < < < < < < < < < < < < < < < < < < < < < < < < < < < < < < < < < < < < < < < < < < < < < < < < < < < < < < < < < < < < . ",
". [ [ [ [ [ [ [ [ [ [ [ [ [ [ [ [ [ [ [ [ [ [ [ [ [ [ [ [ [ [ [ [ [ [ [ [ [ [ [ [ [ [ [ [ [ [ [ [ [ [ [ [ [ [ [ [ [ [ [ [ [ [ [ [ [ [ [ [ [ [ [ [ [ [ [ [ [ [ [ [ [ [ [ [ [ [ [ [ [ [ [ [ [ [ [ [ [ [ [ [ [ [ [ [ [ [ [ [ [ [ [ [ . ",
". } } } } } } } } } } } } } } } } } } } } } } } } } } } } } | | | | | | | | | | | | | | | | } } } } } } } } } } } } } } } } } } } } } } } } } } } } } } } } } } } } } } } } } } } } } } } } } } } } } } } } } } } } } } } } } } } . ",
". 1 1 1 1 1 1 1 1 1 1 1 1 1 1 1 1 1 1 1 1 1 1 1 1 1 1 1 1 1 | 2 3 4 5 6 7 7 8 9 0 0 0 0 a | 1 1 1 1 1 1 1 1 1 1 1 1 1 1 1 1 1 1 1 1 1 1 1 1 1 1 1 1 1 1 1 1 1 1 1 1 1 1 1 1 1 1 1 1 1 1 1 1 1 1 1 1 1 1 1 1 1 1 1 1 1 1 1 1 1 1 1 . ",
". b b b b b b b b b b b b b b b b b b b b b b b b b b b b b | c d e f g h i j k 0 0 0 0 a | b b b b b b b b b b b b b b b b b b b b b b b b b b b b b b b b b b b b b b b b b b b b b b b b b b b b b b b b b b b b b b b b b b b . ",
". l l l l l l l l l l l l l l l l l l l l l l l l l l l l l | c d e f g m n o p 0 0 0 0 a | l l l l l l l l l q r s t u v w x l l l l l l l l l l l l l l l l y z z A l l l l B C l l l l l l l l l l l l l l l l l l l l l l l l . ",
". D D D D D D D D D D D D D D D D D D D D D D D D D D D D D | c d e f g m m E F 0 0 0 0 a | D D D D D D D G H z z z z z z z I J D D D D D D D D D D D D D D D K z z L M D N O z P Q D D D D D D D D D D D D D D D D D D D D D D D . ",
". R R R R R R R R R R R R R R R R R R R R R R R R R R R R R S c d e f g m m E T U V W W X | R R R R R R R Y z z z z z z z z z Z ` R R R R R R R R R R R R R R R  .....+.R @.z z #.$.R R R R R R R R R R R R R R R R R R R R R R R . ",
". %.%.%.%.%.%.%.%.%.%.%.%.%.%.%.%.%.%.%.%.%.%.%.%.%.%.%.%.%.&.*.=.e f g m m E T -.;.;.>.,.| %.%.%.%.%.%.'.z z z ).!.~.{.].^.z z /.(.%.%.%.%.%.%.%.%.%.%.%.%.%.%.%.%.%.%.%._.z z #.:.%.%.%.%.%.%.%.%.%.%.%.%.%.%.%.%.%.%.%.%.%.%.%.. ",
". <.<.<.<.<.<.<.<.<.<.<.<.<.<.<.<.<.<.<.<.<.<.<.<.<.<.<.<.<.[.}.|.1.f g m m E T 2.3.4.5.6.| <.<.<.<.<.<.7.z z 8...9.0.a.b.c.d.z z e.f.g.z z h.<.<.<.i.z j.<.<.k.z z l.<.m.z z z z z l.<.<.<.<.<.<.<.<.<.<.<.<.<.<.<.<.<.<.<.<.<.<.. ",
". f.f.f.f.f.f.f.f.f.f.f.f.f.f.f.f.f.f.f.f.f.f.f.f.f.f.f.f.f.[.n.o.p.q.g m r.s.T 5.t.u.v.w.| f.f.f.f.f.f.x.z z y.z.f.f.f.f.f.A.z z B.C.g.z z D.E.f.f.i.z F.G.f.H.z z L 0.I.z z z z z L 0.f.f.f.f.f.f.f.f.f.f.f.f.f.f.f.f.f.f.f.f.f.. ",
". J.J.J.J.J.J.J.J.J.J.J.J.J.J.J.J.J.J.J.J.J.J.J.K.L.L.L.L.L.M.N.O.P.Q.R.m r.S.T T.U.V.W.X.| J.J.J.J.J.Y.z z Z...`.J.J.J.J.J. +z z )..+++z z D.@+J.J.i.z F.G.J.#+z z L $+J.%+z z #.....$+J.J.J.J.J.J.J.J.J.J.J.J.J.J.J.J.J.J.J.J.J.. ",
". &+&+&+&+&+&+&+&+&+&+&+&+&+&+&+&+&+&+&+&+&+&+&+*+=+-+-+-+N.-+;+>+,+'+)+!+S.E T ~+{+]+^+/+| &+&+&+&+&+(+z z _+:+&+&+&+&+&+&+<+z z [+}+|+z z D.1+&+&+i.z F.2+&+3+z z L 4+&+5+z z #.6+&+&+&+&+&+&+&+&+&+&+&+&+&+&+&+&+&+&+&+&+&+&+&+. ",
". b.b.b.b.b.b.b.b.b.b.b.b.b.b.b.b.b.b.b.b.b.b.b.*+7+8+9+9+9+9+9+9+8+0+a+b+c+E T d+e+f+g+h+| b.b.b.b.b.i+z z Z.j+b.b.b.b.b.b.k+z z l+m+n+z z D.`.b.b.o+z F.2+b.p+z z L q+b.r+z z #.s+b.b.b.b.b.b.b.b.b.b.b.b.b.b.b.b.b.b.b.b.b.b.b.. ",
". t+t+t+t+t+t+t+t+t+t+t+t+t+t+t+t+t+t+t+t+t+t+t+*+u+v+w+x+x+w+w+w+w+w+u+x+y+z+T A+B+C+D+E+| t+t+t+t+t+t+F+z z G+t+t+H+I+J+t+K+z z L+M+N+z z D.O+t+t+P+z F.Q+t+R+z z L S+t+T+z z #.U+t+t+t+t+t+t+t+t+t+t+t+t+t+t+t+t+t+t+t+t+t+t+t+. ",
". V+V+V+V+V+V+V+V+V+V+V+V+V+V+V+V+V+V+V+V+V+V+V+*+W+X+Y+Y+Y+Y+Y+Y+Y+Z+a+`+ @E T .@+@@@#@$@| V+V+V+V+V+V+%@z z &@q+V+*@z =@-@;@z z >@.+,@z z y.$+V+V+'@z F.Q+V+)@z z L !@V+~@z z #.{@V+V+V+V+V+V+V+V+V+V+V+V+V+V+V+V+V+V+V+V+V+V+V+. ",
". ]@]@]@]@]@]@]@]@]@]@]@]@]@]@]@]@]@]@]@]@]@]@]@*+^@/@/@/@/@/@(@Y+9+(@_@:@m E T <@[@}@|@1@| ]@]@]@]@]@]@2@z z z 3@4@5@6@z z z z 7@..s+8@z z 9@0@]@a@z z F.b@]@c@z z L $.]@d@z z e@f@]@]@]@]@]@]@]@]@]@]@]@]@]@]@]@]@]@]@]@]@]@]@]@. ",
". E.E.E.E.E.E.E.E.E.E.E.E.E.E.E.E.E.E.E.E.E.E.E.g@h@h@h@h@h@i@Z+a+j@k@l@m m s.T m@n@o@p@q@| E.E.E.E.E.E.E.r@z z z z z z z z z z s@t@E.u@z z v@w@x@y@z z F.b@E.z@z z L A@E.B@z z C@D@E@E.E.E.E.E.E.E.E.E.E.E.E.E.E.E.E.E.E.E.E.E.E.. ",
". @+@+@+@+@+@+@+@+@+@+@+@+@+@+@+@+@+@+@+@+@+@+@+F@G@G@G@G@G@[.H@I@J@K@g E L@M@N@O@P@Q@R@S@| @+@+@+@+@+@+@+T@U@z z z z z z z z z _+V@W@X@Y@z z z z Z@`@z F. #@+.#z z L +#@+@#z z z z ##$#@+@+@+@+@+@+@+@+@+@+@+@+@+@+@+@+@+@+@+@+@+. ",
". 1+1+1+1+1+1+1+1+1+1+1+1+1+1+1+1+1+1+1+1+1+1+1+1+1+1+1+1+1+[.%#&#*#=#E M@-#;#>#o@,#'#)#!#| 1+1+1+1+1+1+1+1+O+~#8.{#]#^#/#(#l+z z _#:#<#[#}#|#1#2#9@3#z F.4#1+5#z z L 6#1+1+7#8#9#^.0#a#1+1+1+1+1+1+1+1+1+1+1+1+1+1+1+1+1+1+1+1+1+. ",
". b#b#b#b#b#b#b#b#b#b#b#b#b#b#b#b#b#b#b#b#b#b#b#b#b#b#b#b#b#c#d#e#f#g#h#i#P@Q@j#k#l#m#n#o#| b#b#b#b#b#b#b#b#b#b#p#q#r#s#t#u#v#w#x#y#t#S+b#z#A#B#C#D#E#F#..4#b#b#G#....H#b#b#b#I#J#K#L#f@b#b#b#b#b#b#b#b#b#b#b#b#b#b#b#b#b#b#b#b#b#. ",
". O+O+O+O+O+O+O+O+O+O+O+O+O+O+O+O+O+O+O+O+O+O+O+O+O+O+O+O+O+M#N#O#P#Q#Q@R@k#m#R#S#S#T#T#T#| O+O+O+O+O+O+O+O+O+O+O+O+O+O+O+O+O+O+U#A#V#O+O+O+O+O+O+O+O+O+O+O+O+O+O+O+O+O+O+O+O+O+O+O+O+O+O+O+O+O+O+O+O+O+O+O+O+O+O+O+O+O+O+O+O+O+O+. ",
". 4+4+4+4+4+4+4+4+4+4+4+4+4+4+4+4+4+4+4+4+4+4+4+4+4+4+4+4+4+W#X#Y#Y#Y#Y#Y#Y#Y#Y#Y#Y#Y#Y#Y#| 4+4+4+4+4+4+4+4+4+4+4+4+4+4+4+4+4+4+4+4+4+4+4+4+4+4+4+4+4+4+4+4+4+4+4+4+4+4+4+4+4+4+4+4+4+4+4+4+4+4+4+4+4+4+4+4+4+4+4+4+4+4+4+4+4+4+4+. ",
". Z#Z#Z#Z#Z#Z#Z#Z#Z#Z#Z#Z#Z#Z#Z#Z#Z#Z#Z#Z#Z#Z#Z#Z#Z#Z#Z#Z#Z#| | | | | | | | | | | | | | | | Z#Z#Z#Z#Z#Z#Z#Z#Z#Z#Z#Z#Z#Z#Z#Z#Z#Z#Z#Z#Z#Z#Z#Z#Z#Z#Z#Z#Z#Z#Z#Z#Z#Z#Z#Z#Z#Z#Z#Z#Z#Z#Z#Z#Z#Z#Z#Z#Z#Z#Z#Z#Z#Z#Z#Z#Z#Z#Z#Z#Z#Z#Z#Z#Z#Z#Z#. ",
". S+S+S+S+S+S+S+S+S+S+S+S+S+S+S+S+S+S+S+S+S+S+S+S+S+S+S+S+S+S+S+S+S+S+S+S+S+S+S+S+S+S+S+S+S+S+S+S+S+S+S+S+S+S+S+S+S+S+S+S+S+S+S+S+S+S+S+S+S+S+S+S+S+S+S+S+S+S+S+S+S+S+S+S+S+S+S+S+S+S+S+S+S+S+S+S+S+S+S+S+S+S+S+S+S+S+S+S+S+S+S+S+. ",
". `#`#`#`#`#`#`#`#`#`#`#`#`#`#`#`#`#`#`#`#`#`#`#`#`#`#`#`#`#`#`#`#`#`#`#`#`#`#`#`#`#`#`#`#`#`#`#`#`#`#`#`#`#`#`#`#`#`#`#`#`#`#`#`#`#`#`#`#`#`#`#`#`#`#`#`#`#`#`#`#`#`#`#`#`#`#`#`#`#`#`#`#`#`#`#`#`#`#`#`#`#`#`#`#`#`#`#`#`#`#`#`#. ",
".  $ $ $ $ $ $ $ $ $ $ $ $ $ $ $ $ $ $ $ $ $ $ $ $ $ $ $ $ $ $ $ $ $ $ $ $ $ $ $ $ $ $ $ $ $ $ $ $ $ $ $ $ $ $ $ $ $ $ $ $ $ $ $ $ $ $ $ $ $ $ $ $ $ $ $ $ $ $ $ $ $ $ $ $ $ $ $ $ $ $ $ $ $ $ $ $ $ $ $ $ $ $ $ $ $ $ $ $ $ $ $ $. ",
". .$.$.$.$.$.$.$.$.$.$.$.$.$.$.$.$.$.$.$.$.$.$.$.$.$.$.$.$.$.$.$.$.$.$.$.$.$.$.$.$.$.$.$.$.$.$.$.$.$.$.$.$.$.$.$.$.$.$.$.$.$.$.$.$.$.$.$.$.$.$.$.$.$.$.$.$.$.$.$.$.$.$.$.$.$.$.$.$.$.$.$.$.$.$.$.$.$.$.$.$.$.$.$.$.$.$.$.$.$.$.$.$. ",
". +$+$+$+$+$+$+$+$+$+$+$+$+$+$+$+$+$+$+$+$+$+$+$+$+$+$+$+$+$+$+$+$+$+$+$+$+$+$+$+$+$+$+$+$+$+$+$+$+$+$+$+$+$+$+$+$+$+$+$+$+$+$+$+$+$+$+$+$+$+$+$+$+$+$+$+$+$+$+$+$+$+$+$+$+$+$+$+$+$+$+$+$+$+$+$+$+$+$+$+$+$+$+$+$+$+$+$+$+$+$+$+$. ",
". @$@$@$@$@$@$@$@$@$@$@$@$@$@$@$@$@$@$@$@$@$@$@$@$@$@$@$@$@$@$@$@$@$@$@$@$@$@$@$@$@$@$@$@$@$@$@$@$@$@$@$@$@$@$@$@$@$@$@$@$@$@$@$@$@$@$@$@$@$@$@$@$@$@$@$@$@$@$@$@$@$@$@$@$@$@$@$@$@$@$@$@$@$@$@$@$@$@$@$@$@$@$@$@$@$@$@$@$@$@$@$@$. ",
". #$#$#$#$#$#$#$#$#$#$#$#$#$#$#$#$#$#$#$#$#$#$#$#$#$#$#$#$#$#$#$#$#$#$#$#$#$#$#$#$#$#$#$#$#$#$#$#$#$#$#$#$#$#$#$#$#$#$#$#$#$#$#$#$#$#$#$#$#$#$#$#$#$#$#$#$#$#$#$#$#$#$#$#$#$#$#$#$#$#$#$#$#$#$#$#$#$#$#$#$#$#$#$#$#$#$#$#$#$#$#$#$. ",
". $$%$%$%$%$%$%$%$%$%$%$%$%$%$%$%$%$%$%$%$%$%$%$%$%$%$%$%$%$%$%$%$%$%$%$%$%$%$%$%$%$%$%$%$%$%$%$%$%$%$%$%$%$%$%$%$%$%$%$%$%$%$%$%$%$%$%$%$%$%$%$%$%$%$%$%$%$%$%$%$%$%$%$%$%$%$%$%$%$%$%$%$%$%$%$%$%$%$%$%$%$%$%$%$%$%$%$%$%$%$%$$$. ",
". &$*$*$*$*$*$*$*$*$*$*$*$*$*$*$*$*$*$*$*$*$*$*$*$*$*$*$*$*$*$*$*$*$*$*$*$*$*$*$*$*$*$*$*$*$*$*$*$*$*$*$*$*$*$*$*$*$*$*$*$*$*$*$*$*$*$*$*$*$*$*$*$*$*$*$*$*$*$*$*$*$*$*$*$*$*$*$*$*$*$*$*$*$*$*$*$*$*$*$*$*$*$*$*$*$*$*$*$*$*$*$&$. ",
"  =$-$-$-$-$-$-$-$-$-$-$-$-$-$-$-$-$-$-$-$-$-$-$-$-$-$-$-$-$-$-$-$-$-$-$-$-$-$-$-$-$-$-$-$-$-$-$-$-$-$-$-$-$-$-$-$-$-$-$-$-$-$-$-$-$-$-$-$-$-$-$-$-$-$-$-$-$-$-$-$-$-$-$-$-$-$-$-$-$-$-$-$-$-$-$-$-$-$-$-$-$-$-$-$-$-$-$-$-$-$-$=$  ",
"  . ;$>$>$>$>$>$>$>$>$>$>$>$>$>$>$>$>$>$>$>$>$>$>$>$>$>$>$>$>$>$>$>$>$>$>$>$>$>$>$>$>$>$>$>$>$>$>$>$>$>$>$>$>$>$>$>$>$>$>$>$>$>$>$>$>$>$>$>$>$>$>$>$>$>$>$>$>$>$>$>$>$>$>$>$>$>$>$>$>$>$>$>$>$>$>$>$>$>$>$>$>$>$>$>$>$>$>$>$>$;$.   ",
"    ,$'$)$)$)$)$)$)$)$)$)$)$)$)$)$)$)$)$)$)$)$)$)$)$)$)$)$)$)$)$)$)$)$)$)$)$)$)$)$)$)$)$)$)$)$)$)$)$)$)$)$)$)$)$)$)$)$)$)$)$)$)$)$)$)$)$)$)$)$)$)$)$)$)$)$)$)$)$)$)$)$)$)$)$)$)$)$)$)$)$)$)$)$)$)$)$)$)$)$)$)$)$)$)$)$)$)$)$'$,$    ",
"      ,$!$~$~$~$~$~$~$~$~$~$~$~$~$~$~$~$~$~$~$~$~$~$~$~$~$~$~$~$~$~$~$~$~$~$~$~$~$~$~$~$~$~$~$~$~$~$~$~$~$~$~$~$~$~$~$~$~$~$~$~$~$~$~$~$~$~$~$~$~$~$~$~$~$~$~$~$~$~$~$~$~$~$~$~$~$~$~$~$~$~$~$~$~$~$~$~$~$~$~$~$~$~$~$~$~$!$,$      ",
"        ,${$]$^$/$/$/$/$/$/$/$/$/$/$/$/$/$/$/$/$/$/$/$/$/$/$/$/$/$/$/$/$/$/$/$/$/$/$/$/$/$/$/$/$/$/$/$/$/$/$/$/$/$/$/$/$/$/$/$/$/$/$/$/$/$/$/$/$/$/$/$/$/$/$/$/$/$/$/$/$/$/$/$/$/$/$/$/$/$/$/$/$/$/$/$/$/$/$/$/$/$/$^$]${$,$        ",
"            . . . . . . . . . . . . . . . . . . . . . . . . . . . . . . . . . . . . . . . . . . . . . . . . . . . . . . . . . . . . . . . . . . . . . . . . . . . . . . . . . . . . . . . . . . . . . . . . . . . . . .             "};
