/* XPM */
static char * item_xpm[] = {
"36 36 280 2",
"  	c #980088",
". 	c #980188",
"+ 	c #930F84",
"@ 	c #950986",
"# 	c #8F1781",
"$ 	c #4E4454",
"% 	c #76316F",
"& 	c #990089",
"* 	c #9D3A90",
"= 	c #992F8B",
"- 	c #951F87",
"; 	c #941585",
"> 	c #931084",
", 	c #930D84",
"' 	c #930C84",
") 	c #930984",
"! 	c #920683",
"~ 	c #920383",
"{ 	c #920283",
"] 	c #58445B",
"^ 	c #595D64",
"/ 	c #764171",
"( 	c #951486",
"_ 	c #920E84",
": 	c #920F84",
"< 	c #940C85",
"[ 	c #970086",
"} 	c #C1AFC7",
"| 	c #A49FAB",
"1 	c #7A7281",
"2 	c #5D5665",
"3 	c #554858",
"4 	c #524657",
"5 	c #534756",
"6 	c #514355",
"7 	c #4C3E4F",
"8 	c #493B4C",
"9 	c #433245",
"0 	c #3A263B",
"a 	c #321A32",
"b 	c #311630",
"c 	c #31142F",
"d 	c #31122F",
"e 	c #31132F",
"f 	c #2F122F",
"g 	c #30142F",
"h 	c #5E6069",
"i 	c #716F79",
"j 	c #67626E",
"k 	c #5D5261",
"l 	c #333E4A",
"m 	c #2F3F4B",
"n 	c #55375C",
"o 	c #930D85",
"p 	c #960587",
"q 	c #9D3D91",
"r 	c #BCCCD4",
"s 	c #A3A7B2",
"t 	c #7D808A",
"u 	c #6A6B72",
"v 	c #6A6972",
"w 	c #646771",
"x 	c #5E636C",
"y 	c #55575E",
"z 	c #505258",
"A 	c #44464C",
"B 	c #303337",
"C 	c #1F2525",
"D 	c #212828",
"E 	c #202425",
"F 	c #1E2222",
"G 	c #13191B",
"H 	c #12191A",
"I 	c #151B1D",
"J 	c #7F828C",
"K 	c #73717C",
"L 	c #52525A",
"M 	c #3F4246",
"N 	c #303434",
"O 	c #31373B",
"P 	c #2B414B",
"Q 	c #802478",
"R 	c #A05C9A",
"S 	c #BAC2CC",
"T 	c #878B92",
"U 	c #7D8087",
"V 	c #858891",
"W 	c #8B8F98",
"X 	c #858691",
"Y 	c #797D88",
"Z 	c #797B85",
"` 	c #777982",
" .	c #6B6D73",
"..	c #545F5D",
"+.	c #606968",
"@.	c #545E5D",
"#.	c #596362",
"$.	c #31333A",
"%.	c #252D32",
"&.	c #282D30",
"*.	c #82858F",
"=.	c #73727C",
"-.	c #3F3F45",
";.	c #181C1B",
">.	c #434443",
",.	c #484848",
"'.	c #2E4744",
").	c #7E2576",
"!.	c #980F89",
"~.	c #A879A6",
"{.	c #B4BDC4",
"].	c #8C9098",
"^.	c #84858F",
"/.	c #8B929B",
"(.	c #868A94",
"_.	c #7B808A",
":.	c #7C818C",
"<.	c #7D808C",
"[.	c #7C7E86",
"}.	c #63676C",
"|.	c #606369",
"1.	c #3F4347",
"2.	c #575E5F",
"3.	c #444751",
"4.	c #464B52",
"5.	c #404348",
"6.	c #838590",
"7.	c #3D3D44",
"8.	c #121A19",
"9.	c #373838",
"0.	c #3B3B3B",
"a.	c #393A3A",
"b.	c #293A3D",
"c.	c #99188A",
"d.	c #B299B4",
"e.	c #C8CED4",
"f.	c #A1A7B0",
"g.	c #82878F",
"h.	c #858B95",
"i.	c #848892",
"j.	c #7B7C87",
"k.	c #7B828C",
"l.	c #7C7C87",
"m.	c #767882",
"n.	c #666970",
"o.	c #51535A",
"p.	c #35383D",
"q.	c #303139",
"r.	c #494851",
"s.	c #56555F",
"t.	c #848691",
"u.	c #3C3E44",
"v.	c #1B1E1E",
"w.	c #262626",
"x.	c #272727",
"y.	c #272828",
"z.	c #2C3638",
"A.	c #6A3069",
"B.	c #970387",
"C.	c #99218A",
"D.	c #BFB5C4",
"E.	c #C0CAC9",
"F.	c #AAACB1",
"G.	c #9B9FA6",
"H.	c #8F969E",
"I.	c #879098",
"J.	c #81848E",
"K.	c #818992",
"L.	c #878E96",
"M.	c #8E949C",
"N.	c #72737C",
"O.	c #585A62",
"P.	c #31393B",
"Q.	c #363A3E",
"R.	c #54545C",
"S.	c #82848F",
"T.	c #49434D",
"U.	c #3F2B3B",
"V.	c #402C3C",
"W.	c #3F2E3E",
"X.	c #960687",
"Y.	c #9C398F",
"Z.	c #9E4E93",
"`.	c #BAC4C4",
" +	c #B8C7C8",
".+	c #B6C7C8",
"++	c #B7D1CC",
"@+	c #B5BCC4",
"#+	c #A7B1BC",
"$+	c #A8B9BB",
"%+	c #AABCBB",
"&+	c #A8B0B2",
"*+	c #989CA7",
"=+	c #7C848A",
"-+	c #656C70",
";+	c #584F5E",
">+	c #6D6D75",
",+	c #71717A",
"'+	c #743C6E",
")+	c #930484",
"!+	c #930883",
"~+	c #980688",
"{+	c #9C408F",
"]+	c #9C4290",
"^+	c #9B4290",
"/+	c #9C4691",
"(+	c #9B3E90",
"_+	c #9A3A8E",
":+	c #9A3D8E",
"<+	c #9A3E8E",
"[+	c #9A3A8D",
"}+	c #98338C",
"|+	c #962A89",
"1+	c #942086",
"2+	c #931685",
"3+	c #736476",
"4+	c #66686F",
"5+	c #773C71",
"6+	c #932985",
"7+	c #6B6270",
"8+	c #7A3A73",
"9+	c #980388",
"0+	c #951B86",
"a+	c #960C86",
"b+	c #960A85",
"c+	c #940F83",
"d+	c #940E83",
"e+	c #940D83",
"f+	c #950E83",
"g+	c #79345C",
"h+	c #654035",
"i+	c #623E34",
"j+	c #5F3C33",
"k+	c #613E34",
"l+	c #6B3D41",
"m+	c #970586",
"n+	c #950A84",
"o+	c #743753",
"p+	c #5D4322",
"q+	c #5E4222",
"r+	c #594020",
"s+	c #553E1E",
"t+	c #583F20",
"u+	c #5E4323",
"v+	c #644034",
"w+	c #970287",
"x+	c #8A2474",
"y+	c #644132",
"z+	c #5A3E27",
"A+	c #4F3C1C",
"B+	c #4D3C1C",
"C+	c #45361A",
"D+	c #3E3018",
"E+	c #3E3118",
"F+	c #433519",
"G+	c #553F1F",
"H+	c #593F22",
"I+	c #654133",
"J+	c #921580",
"K+	c #583F21",
"L+	c #583F1F",
"M+	c #4E3C1C",
"N+	c #4C3B1B",
"O+	c #453619",
"P+	c #433419",
"Q+	c #584020",
"R+	c #5F4323",
"S+	c #62422C",
"T+	c #654033",
"U+	c #573F1F",
"V+	c #563F1F",
"W+	c #563E1F",
"X+	c #553E1F",
"Y+	c #5C4222",
"Z+	c #5E4321",
"`+	c #7A335D",
" @	c #950D84",
".@	c #5D4222",
"+@	c #5E4320",
"@@	c #7C3161",
"                                                                        ",
"                                                                        ",
"                                                                        ",
"                                                                        ",
"                                                                        ",
"                                                                        ",
"                                                                        ",
"                                                                        ",
"                                                                        ",
"                                                                        ",
"                                                                        ",
"                                                                        ",
"                                                                        ",
"                                            . + @                       ",
"                                            # $ % &                     ",
"      * = - ; > + > + , ' ) ! ~ { { { { { ~ ] ^ / ( _ : : : : : <       ",
"    [ } | 1 2 3 4 5 6 7 8 9 0 a b c d e f g h i j k l m m m m m n o p   ",
"      q r s t u v w x y z A B C D E F G H I J K L M N N N N N N O P Q   ",
"      . R S T U V W X Y Z `  ...+.@.#.$.%.&.*.=.-.;.>.,.,.,.,.,.,.'.).  ",
"        !.~.{.].^./.(._.:.<.[.}.|.1.2.3.4.5.6.=.7.8.9.0.0.0.0.0.a.b.Q   ",
"          c.d.e.f.g.h.i.j.k.l.m.n.o.p.q.r.s.t.=.u.v.w.x.x.x.x.y.z.A.B.  ",
"            C.D.E.F.G.H.I.J.K.L.M.N.O.P.Q.R.S.=.T.U.V.V.V.V.V.W.n X.    ",
"              Y.Z.`. +.+++@+#+$+%+&+*+=+-+;+>+,+'+)+!+!+!+!+!+!+<       ",
"                ~+{+]+^+/+(+_+:+<+[+}+|+1+2+3+4+5+&                     ",
"                                            6+7+8+&                     ",
"                                            9+0+a+                      ",
"                                                                        ",
"                                                                        ",
"                                                                        ",
"                                b+c+c+c+d+e+e+e+e+e+e+e+d+c+c+f+        ",
"                              & g+h+h+h+i+j+j+j+j+j+j+j+k+h+h+l+.       ",
"  m+c+c+c+c+c+c+c+c+c+d+e+e+e+n+o+p+q+q+r+s+s+s+s+s+s+s+t+q+u+v+c+c+c+w+",
"  x+y+h+h+h+h+h+h+h+h+i+j+j+j+j+z+A+B+B+C+D+E+E+E+E+E+E+F+B+G+H+h+h+I+J+",
"  x+y+h+h+h+h+h+h+h+h+i+j+K+L+L+L+M+N+N+O+D+E+E+E+E+E+E+P+N+s+Q+R+S+T+J+",
"  m+c+c+c+c+c+c+c+c+c+d+d+v+u+u+u+U+V+V+W+s+s+s+s+s+s+s+X+V+Y+u+Z+`+ @w+",
"                        . h+R+R+R+Q+U+U+U+U+U+U+U+U+U+U+U+U+.@R++@@@&   "};
