/* XPM */
static char * mini_wall_xpm[] = {
"10 10 88 1",
" 	c #505665",
".	c #98A0B5",
"+	c #97A1B5",
"@	c #96A0B5",
"#	c #798193",
"$	c #8991A6",
"%	c #96A0B4",
"&	c #96A0B2",
"*	c #383E52",
"=	c #6D7688",
"-	c #ABB8D3",
";	c #A0AEC9",
">	c #98A8C3",
",	c #515E78",
"'	c #ACB9D5",
")	c #A1B1CB",
"!	c #98A8C2",
"~	c #7D8CA5",
"{	c #343C57",
"]	c #A8B6D1",
"^	c #9BA9C5",
"/	c #99A9C4",
"(	c #4A5774",
"_	c #9BAAC5",
":	c #9AAAC4",
"<	c #7A88A3",
"[	c #323A58",
"}	c #6D7686",
"|	c #A6B4CF",
"1	c #95A4BE",
"2	c #9CABC5",
"3	c #4A5773",
"4	c #ABB7D4",
"5	c #94A4BF",
"6	c #9DABC8",
"7	c #7986A2",
"8	c #313A57",
"9	c #565E6C",
"0	c #68748C",
"a	c #45536D",
"b	c #46536E",
"c	c #3D4A67",
"d	c #808BA4",
"e	c #43516D",
"f	c #44516E",
"g	c #43506D",
"h	c #303956",
"i	c #616979",
"j	c #AFBCD6",
"k	c #ACB9D4",
"l	c #ADB9D4",
"m	c #8690A9",
"n	c #A5B0CC",
"o	c #ACB9D3",
"p	c #A7B4CE",
"q	c #424A65",
"r	c #6E7786",
"s	c #9FAEC9",
"t	c #97A6C1",
"u	c #ABB8D4",
"v	c #A2B2CC",
"w	c #96A6C1",
"x	c #7987A2",
"y	c #323A57",
"z	c #A8B5D0",
"A	c #98A7C2",
"B	c #A0B0CC",
"C	c #7988A3",
"D	c #313A56",
"E	c #6D7787",
"F	c #9DABC4",
"G	c #8796B0",
"H	c #8A99B4",
"I	c #475571",
"J	c #A9B5D1",
"K	c #8695B1",
"L	c #8899B4",
"M	c #6D7D97",
"N	c #323B56",
"O	c #434A5A",
"P	c #555E76",
"Q	c #3B4663",
"R	c #3B4764",
"S	c #3B4561",
"T	c #666F87",
"U	c #3B4664",
"V	c #3B4762",
"W	c #2D3751",
" .+@#$@%&*",
"=-;>,')!~{",
"=]^/('_:<[",
"}|12345678",
"90abcdefgh",
"ijklmnlopq",
"r-st3uvwxy",
"}zAs3'tBCD",
"EFGHIJKLMN",
"OPQRSTUQVW"};
