/* XPM */
static char * mini_door_xpm[] = {
"10 10 68 1",
" 	c #1C6666",
".	c #136363",
"+	c #136161",
"@	c #136969",
"#	c #136666",
"$	c #136060",
"%	c #1C6262",
"&	c #137575",
"*	c #007676",
"=	c #007979",
"-	c #007F7F",
";	c #008282",
">	c #007B7B",
",	c #007474",
"'	c #006A6A",
")	c #136767",
"!	c #137878",
"~	c #007E7E",
"{	c #008787",
"]	c #008A8A",
"^	c #008383",
"/	c #007A7A",
"(	c #007575",
"_	c #136868",
":	c #147B7B",
"<	c #008585",
"[	c #008989",
"}	c #008484",
"|	c #007272",
"1	c #006868",
"2	c #178181",
"3	c #508D7A",
"4	c #4D7777",
"5	c #718585",
"6	c #007C7C",
"7	c #007777",
"8	c #006F6F",
"9	c #158585",
"0	c #577D60",
"a	c #2B504A",
"b	c #6B6E54",
"c	c #007878",
"d	c #007171",
"e	c #006B6B",
"f	c #166565",
"g	c #248E8E",
"h	c #227570",
"i	c #1B5050",
"j	c #405353",
"k	c #007373",
"l	c #006E6E",
"m	c #006C6C",
"n	c #178686",
"o	c #007070",
"p	c #006D6D",
"q	c #188383",
"r	c #008080",
"s	c #146A6A",
"t	c #287171",
"u	c #238282",
"v	c #237F7F",
"w	c #207878",
"x	c #206E6E",
"y	c #207373",
"z	c #207B7B",
"A	c #207C7C",
"B	c #207777",
"C	c #276B6B",
" .+++@#+$%",
"&**=-;>,')",
"!~;{]^/('_",
":<[]}>*|1@",
"234567,8'@",
"90abc,d8ef",
"ghij(kldm)",
"n-c(,olkp_",
"qr>*klk*8s",
"tuvwxyzABC"};
